<?xml version="1.0" encoding="UTF-8" standalone="no"?>
<svg
   xmlns:dc="http://purl.org/dc/elements/1.1/"
   xmlns:cc="http://creativecommons.org/ns#"
   xmlns:rdf="http://www.w3.org/1999/02/22-rdf-syntax-ns#"
   xmlns:svg="http://www.w3.org/2000/svg"
   xmlns="http://www.w3.org/2000/svg"
   viewBox="0 0 1061.9467 639.96802"
   height="639.96802"
   width="1061.9467"
   xml:space="preserve"
   id="svg2"
   version="1.1"><metadata
     id="metadata8"><rdf:RDF><cc:Work
         rdf:about=""><dc:format>image/svg+xml</dc:format><dc:type
           rdf:resource="http://purl.org/dc/dcmitype/StillImage" /></cc:Work></rdf:RDF></metadata><defs
     id="defs6"><clipPath
       id="clipPath18"
       clipPathUnits="userSpaceOnUse"><path
         id="path16"
         d="M 0,479.976 H 796.46 V 0 H 0 Z" /></clipPath><clipPath
       id="clipPath30"
       clipPathUnits="userSpaceOnUse"><path
         id="path28"
         d="M 0,479.976 H 796.46 V 0 H 0 Z" /></clipPath><clipPath
       id="clipPath74"
       clipPathUnits="userSpaceOnUse"><path
         id="path72"
         d="M 0,479.976 H 796.46 V 0 H 0 Z" /></clipPath><clipPath
       id="clipPath82"
       clipPathUnits="userSpaceOnUse"><path
         id="path80"
         d="M 334.574,323.78 H 516.088 V 165.584 H 334.574 Z" /></clipPath><clipPath
       id="clipPath86"
       clipPathUnits="userSpaceOnUse"><path
         id="path84"
         d="m 475.836,165.585 c -15.963,1.161 -31.941,3.466 -47.488,6.853 -40.712,28.529 -73.108,67.466 -93.756,112.634 -0.015,0.034 -0.021,0.073 -0.015,0.111 1.944,13.533 7.196,26.429 15.19,37.295 0.029,0.04 0.072,0.067 0.12,0.077 3.816,0.813 7.525,1.225 11.024,1.225 l 0.407,-10e-4 c 9.826,-0.078 18.901,-3.248 25.556,-8.924 7.889,-6.731 12.227,-16.711 16.421,-26.362 0.588,-1.355 1.175,-2.704 1.77,-4.04 6.945,-15.623 14.646,-28.086 23.539,-38.098 10.746,-12.098 23.526,-20.762 36.96,-25.054 4.3,-1.374 8.77,-2.335 13.092,-3.265 3.656,-0.786 7.435,-1.599 11.073,-2.657 9.492,-2.761 16.14,-6.81 20.322,-12.38 6.327,-8.427 6.486,-19.158 5.715,-29.499 -0.004,-0.058 -0.032,-0.11 -0.078,-0.145 -0.035,-0.026 -0.077,-0.041 -0.121,-0.041 -0.013,0 -0.025,0.001 -0.038,0.004 -2.555,0.493 -4.612,0.936 -6.476,1.393 l -1.06,0.261 c -4.417,1.092 -9.423,2.329 -14.175,2.329 -3.524,0 -6.536,-0.661 -9.208,-2.022 -3.7,-1.885 -6.745,-5.284 -8.575,-9.573 -0.032,-0.074 -0.104,-0.122 -0.184,-0.122 -0.005,0 -0.01,0 -0.015,0.001" /></clipPath><linearGradient
       id="linearGradient92"
       spreadMethod="pad"
       gradientTransform="matrix(181.51357,0,0,-181.51357,334.57449,244.6821)"
       gradientUnits="userSpaceOnUse"
       y2="0"
       x2="1"
       y1="0"
       x1="0"><stop
         id="stop88"
         offset="0"
         style="stop-opacity:1;stop-color:#231f20" /><stop
         id="stop90"
         offset="1"
         style="stop-opacity:1;stop-color:#376b66" /></linearGradient><clipPath
       id="clipPath114"
       clipPathUnits="userSpaceOnUse"><path
         id="path112"
         d="M 386.304,135.348 H 511.715 V 82.3425 H 386.304 Z" /></clipPath><clipPath
       id="clipPath118"
       clipPathUnits="userSpaceOnUse"><path
         id="path116"
         d="m 426.405,82.342 c -8.604,1.84 -16.956,4.679 -24.869,8.442 -0.046,0.021 -0.082,0.06 -0.1,0.107 l -15.119,38.413 c -0.029,0.077 -0.01,0.163 0.049,0.219 1.678,1.582 2.905,3.568 3.884,5.301 0.028,0.049 0.076,0.084 0.131,0.097 0.015,0.003 0.029,0.005 0.043,0.005 0.042,0 0.082,-0.013 0.117,-0.038 1.729,-1.233 3.638,-2.186 5.676,-2.834 0.101,-0.031 0.16,-0.136 0.134,-0.239 -0.529,-2.119 -0.873,-4.347 0.176,-6.284 0.991,-1.829 3.042,-2.921 5.486,-2.921 0.7,0 1.378,0.093 2.014,0.277 2.652,0.767 4.65,2.701 6.256,4.491 1.062,1.187 2.096,2.492 3.16,3.989 0.038,0.053 0.099,0.084 0.163,0.084 h 0.006 c 0.876,-0.027 1.749,-0.05 2.624,-0.05 1.61,0 3.304,0.055 5.176,0.168 0.004,0.001 0.007,0.001 0.011,0.001 0.057,0 0.112,-0.024 0.15,-0.066 0.04,-0.046 0.058,-0.108 0.048,-0.168 l -1.082,-6.228 c -0.24,-1.381 -0.536,-3.099 0.143,-4.696 0.5,-1.176 1.496,-2.1 2.804,-2.602 0.725,-0.278 1.502,-0.419 2.309,-0.419 0.959,0 1.908,0.206 2.742,0.596 2.77,1.294 4.382,4.084 5.353,6.069 1.695,3.468 2.817,7.209 3.336,11.119 0.014,0.099 0.099,0.173 0.198,0.173 0.004,0 7.013,-0.42 7.013,-0.42 0.088,-0.004 0.161,-0.066 0.183,-0.151 0.02,-0.085 -0.016,-0.174 -0.091,-0.219 -0.65,-0.394 -1.256,-0.762 -1.867,-1.119 -0.691,-0.4 -1.381,-0.8 -2.079,-1.185 -0.122,-0.815 -0.232,-1.631 -0.336,-2.45 -0.655,-5.148 -0.99,-10.277 -0.996,-15.246 -0.004,-2.72 0.297,-5.731 2.564,-7.437 0.9,-0.678 2.007,-1.036 3.199,-1.036 1.52,0 3.091,0.563 4.312,1.546 1.649,1.33 2.855,3.381 3.688,6.274 0.712,2.474 1.065,5.087 1.049,7.77 0,0.082 0.05,0.156 0.126,0.186 2.69,1.07 5.373,2.195 7.974,3.346 0.026,0.011 0.053,0.017 0.081,0.017 0.05,0 0.1,-0.019 0.138,-0.056 5.787,-5.579 13.674,-8.779 21.642,-8.779 0.505,0 1.01,0.014 1.516,0.039 0.604,0.032 1.203,0.098 1.801,0.166 0.007,0.001 0.015,0.002 0.023,0.002 0.084,0 0.159,-0.052 0.188,-0.132 4.774,-13.33 13.103,-25.005 24.088,-33.765 0.067,-0.053 0.092,-0.142 0.064,-0.223 -0.028,-0.08 -0.104,-0.134 -0.189,-0.134 z" /></clipPath><linearGradient
       id="linearGradient124"
       spreadMethod="pad"
       gradientTransform="matrix(125.41154,0,0,-125.41154,386.30359,108.84542)"
       gradientUnits="userSpaceOnUse"
       y2="0"
       x2="1"
       y1="0"
       x1="0"><stop
         id="stop120"
         offset="0"
         style="stop-opacity:1;stop-color:#231f20" /><stop
         id="stop122"
         offset="1"
         style="stop-opacity:1;stop-color:#376b66" /></linearGradient><clipPath
       id="clipPath146"
       clipPathUnits="userSpaceOnUse"><path
         id="path144"
         d="m 158.741,181.447 h 56.446 v -59.408 h -56.446 z" /></clipPath><clipPath
       id="clipPath150"
       clipPathUnits="userSpaceOnUse"><path
         id="path148"
         d="m 195.268,122.039 c -2.038,0 -4.162,0.258 -6.314,0.765 -7.583,1.788 -14.9,6.51 -20.605,13.296 -5.704,6.786 -9.097,14.807 -9.555,22.584 -0.451,7.669 2.015,14.173 6.944,18.316 3.46,2.909 7.937,4.447 12.946,4.447 9.444,0 19.498,-5.253 26.895,-14.052 5.704,-6.786 9.098,-14.806 9.555,-22.584 0.452,-7.669 -2.015,-14.173 -6.943,-18.315 -3.469,-2.916 -7.937,-4.457 -12.923,-4.457" /></clipPath><linearGradient
       id="linearGradient156"
       spreadMethod="pad"
       gradientTransform="matrix(-113.9943,304.48474,304.48474,113.9943,236.30608,19.952988)"
       gradientUnits="userSpaceOnUse"
       y2="0"
       x2="1"
       y1="0"
       x1="0"><stop
         id="stop152"
         offset="0"
         style="stop-opacity:1;stop-color:#231f20" /><stop
         id="stop154"
         offset="1"
         style="stop-opacity:1;stop-color:#376b66" /></linearGradient><clipPath
       id="clipPath178"
       clipPathUnits="userSpaceOnUse"><path
         id="path176"
         d="M 104.727,80.3425 H 564.001 V 63.614 H 104.727 Z" /></clipPath><clipPath
       id="clipPath182"
       clipPathUnits="userSpaceOnUse"><path
         id="path180"
         d="m 104.927,63.614 c -0.111,0 -0.2,0.09 -0.2,0.2 v 9.392 c 0,0.11 0.089,0.2 0.2,0.2 H 406.85 c 0.331,0 0.64,0.163 0.826,0.437 0.187,0.274 0.226,0.621 0.104,0.929 l -2.085,5.297 c -0.024,0.062 -0.016,0.131 0.021,0.186 0.037,0.054 0.099,0.087 0.165,0.087 h 108.811 c 0.043,0 0.086,-0.014 0.12,-0.041 0.103,-0.076 0.366,-0.273 0.441,-0.324 0.17,-0.121 0.369,-0.183 0.575,-0.183 0.326,0 0.632,0.158 0.817,0.423 0.036,0.062 0.111,0.125 0.183,0.125 H 563.8 c 0.111,0 0.201,-0.089 0.201,-0.2 V 63.814 c 0,-0.11 -0.09,-0.2 -0.201,-0.2 z" /></clipPath><linearGradient
       id="linearGradient188"
       spreadMethod="pad"
       gradientTransform="matrix(459.27393,0,0,-459.27393,104.72663,71.978233)"
       gradientUnits="userSpaceOnUse"
       y2="0"
       x2="1"
       y1="0"
       x1="0"><stop
         id="stop184"
         offset="0"
         style="stop-opacity:1;stop-color:#231f20" /><stop
         id="stop186"
         offset="1"
         style="stop-opacity:1;stop-color:#376b66" /></linearGradient><clipPath
       id="clipPath210"
       clipPathUnits="userSpaceOnUse"><path
         id="path208"
         d="m 391.4,151.99 h 10.142 V 133.989 H 391.4 Z" /></clipPath><clipPath
       id="clipPath214"
       clipPathUnits="userSpaceOnUse"><path
         id="path212"
         d="m 396.756,133.989 c -0.021,0 -0.041,0.004 -0.062,0.01 -1.884,0.612 -3.638,1.511 -5.212,2.674 -0.082,0.059 -0.105,0.169 -0.057,0.257 2.811,5.068 6.094,10.107 9.758,14.98 0.038,0.052 0.098,0.08 0.159,0.08 0.03,0 0.059,-0.007 0.087,-0.021 0.086,-0.041 0.131,-0.137 0.107,-0.23 l -4.586,-17.601 c -0.014,-0.052 -0.049,-0.098 -0.097,-0.125 -0.03,-0.015 -0.063,-0.024 -0.097,-0.024" /></clipPath><linearGradient
       id="linearGradient220"
       spreadMethod="pad"
       gradientTransform="matrix(10.142165,0,0,-10.142165,391.40015,142.98947)"
       gradientUnits="userSpaceOnUse"
       y2="0"
       x2="1"
       y1="0"
       x1="0"><stop
         id="stop216"
         offset="0"
         style="stop-opacity:1;stop-color:#231f20" /><stop
         id="stop218"
         offset="1"
         style="stop-opacity:1;stop-color:#376b66" /></linearGradient><clipPath
       id="clipPath242"
       clipPathUnits="userSpaceOnUse"><path
         id="path240"
         d="M 303.782,339.383 H 492.99 V 173.808 H 303.782 Z" /></clipPath><clipPath
       id="clipPath246"
       clipPathUnits="userSpaceOnUse"><path
         id="path244"
         d="m 490.288,217.3 c 0.929,-0.271 1.824,-0.557 2.702,-0.853 -7.389,11.63 -14.378,23.523 -21.155,35.435 -14.334,25.194 -31.944,49.882 -55.057,67.753 -11.706,9.05 -25.165,16.259 -39.865,18.803 -13.346,2.31 -26.747,0.255 -39.246,-4.748 -12.553,-5.024 -26.134,-14.002 -33.885,-25.381 7.476,-20.794 17.998,-40.972 31.355,-60.1 0.038,-0.053 0.099,-0.085 0.164,-0.085 h 3.571 c 0.414,0 0.779,-0.249 0.931,-0.634 l 4.709,-11.943 c 13.161,-16.796 28.594,-32.672 45.87,-47.188 4.674,-3.927 8.7,-7.039 12.766,-9.83 2.075,-0.221 4.127,-0.797 5.776,-1.26 4.221,-1.184 8.737,-2.346 13.421,-3.455 0.016,-0.004 0.031,-0.006 0.046,-0.006 0.077,0 0.149,0.044 0.182,0.117 0.04,0.086 0.013,0.189 -0.064,0.245 -37.628,27.566 -68.082,64.4 -88.068,106.519 -0.034,0.07 -0.105,0.114 -0.181,0.114 -0.011,0 -0.023,-0.002 -0.035,-0.003 -0.089,-0.017 -0.156,-0.09 -0.164,-0.18 -0.412,-4.706 -0.433,-9.338 -0.06,-13.767 0.045,-0.549 -0.364,-1.033 -0.998,-1.083 -0.515,0 -0.952,0.402 -0.996,0.916 -0.496,5.914 -0.327,12.013 0.503,18.127 0.163,1.202 0.357,2.425 0.575,3.635 2.121,11.772 6.771,23.154 13.447,32.916 0.048,0.07 0.047,0.161 -0.002,0.229 -0.038,0.054 -0.099,0.084 -0.163,0.084 -0.017,0 -0.035,-0.002 -0.053,-0.007 -3.984,-1.1 -7.968,-2.595 -11.843,-4.442 -0.135,-0.065 -0.28,-0.097 -0.428,-0.097 -0.385,0 -0.74,0.224 -0.905,0.569 -0.237,0.498 -0.025,1.096 0.473,1.333 4.99,2.379 10.05,4.159 15.04,5.29 1.138,0.259 2.064,0.449 2.915,0.598 3.235,0.569 6.428,0.858 9.489,0.858 h 0.279 c 10.294,-0.082 19.826,-3.421 26.837,-9.403 8.243,-7.032 12.67,-17.22 16.952,-27.072 0.588,-1.354 1.175,-2.702 1.769,-4.039 6.861,-15.431 14.452,-27.725 23.208,-37.582 10.507,-11.83 22.981,-20.294 36.073,-24.477 4.208,-1.344 8.619,-2.293 12.906,-3.216 3.693,-0.794 7.511,-1.615 11.209,-2.69" /></clipPath><linearGradient
       id="linearGradient252"
       spreadMethod="pad"
       gradientTransform="matrix(438.29196,0,0,-438.29196,300.81647,256.59576)"
       gradientUnits="userSpaceOnUse"
       y2="0"
       x2="1"
       y1="0"
       x1="0"><stop
         id="stop248"
         offset="0"
         style="stop-opacity:1;stop-color:#231f20" /><stop
         id="stop250"
         offset="1"
         style="stop-opacity:1;stop-color:#376b66" /></linearGradient><clipPath
       id="clipPath274"
       clipPathUnits="userSpaceOnUse"><path
         id="path272"
         d="m 517.733,180.689 h 7.655 v -9.016 h -7.655 z" /></clipPath><clipPath
       id="clipPath278"
       clipPathUnits="userSpaceOnUse"><path
         id="path276"
         d="m 517.898,172.865 c 2.449,-0.437 4.948,-0.83 7.49,-1.192 -2.541,2.995 -4.986,6.016 -7.335,9.016 -0.005,-2.581 -0.134,-5.138 -0.319,-7.612 -0.008,-0.102 0.063,-0.193 0.164,-0.212" /></clipPath><linearGradient
       id="linearGradient284"
       spreadMethod="pad"
       gradientTransform="matrix(438.29196,0,0,-438.29196,300.81647,176.18076)"
       gradientUnits="userSpaceOnUse"
       y2="0"
       x2="1"
       y1="0"
       x1="0"><stop
         id="stop280"
         offset="0"
         style="stop-opacity:1;stop-color:#231f20" /><stop
         id="stop282"
         offset="1"
         style="stop-opacity:1;stop-color:#376b66" /></linearGradient><clipPath
       id="clipPath306"
       clipPathUnits="userSpaceOnUse"><path
         id="path304"
         d="M 489.582,163.871 H 739.108 V 67.7634 H 489.582 Z" /></clipPath><clipPath
       id="clipPath310"
       clipPathUnits="userSpaceOnUse"><path
         id="path308"
         d="m 738.704,103.009 c -1.066,2.983 -3.945,4.74 -6.993,6.599 -0.906,0.552 -1.843,1.123 -2.726,1.73 -7.729,5.313 -11.998,14.491 -15.429,21.866 l -14.268,30.667 c -3.149,-9.236 -4.978,-18.256 -6.51,-28.023 -1.235,-7.881 -4.208,-14.444 -10.616,-19.449 -17.001,-13.278 -41.577,-10.845 -61.757,-9.967 -20.236,0.879 -40.387,-1.265 -60.618,-0.734 -10.185,0.267 -21.106,1.114 -31.203,4.051 0.861,-3.243 1.59,-6.509 2.152,-9.799 0.046,-0.262 -0.015,-0.526 -0.17,-0.744 -0.153,-0.219 -0.383,-0.364 -0.648,-0.408 -0.056,-0.01 -0.114,-0.015 -0.168,-0.015 -0.489,0 -0.903,0.35 -0.985,0.832 -0.621,3.637 -1.451,7.248 -2.447,10.831 -7.478,2.447 -14.424,6.136 -20.177,11.714 -1.092,1.059 0.577,2.724 1.667,1.668 5.1,-4.945 11.168,-8.367 17.744,-10.733 -2.001,6.562 -4.613,13.007 -7.843,19.265 -0.029,0.054 -0.08,0.092 -0.138,0.105 -0.014,0.002 -0.027,0.003 -0.04,0.003 -0.047,0 -0.092,-0.016 -0.128,-0.046 -8.236,-6.88 -17.288,-13.515 -27.658,-15.457 -0.058,-0.011 -0.108,-0.046 -0.137,-0.098 -0.029,-0.051 -0.034,-0.112 -0.014,-0.167 4.986,-13.646 14.138,-25.834 25.773,-34.318 0.034,-0.026 0.076,-0.04 0.118,-0.04 h 49.516 c 0.551,0 1,-0.448 1,-1 V 70.257 c 0,-0.104 0.078,-0.19 0.181,-0.2 15.987,-1.522 32.221,-2.294 48.25,-2.294 19.362,0 38.909,1.123 58.102,3.338 20.515,2.369 41.85,6.244 58.897,18.457 2.256,1.617 9.447,7.365 7.273,13.451" /></clipPath><linearGradient
       id="linearGradient316"
       spreadMethod="pad"
       gradientTransform="matrix(438.29196,0,0,-438.29196,300.81647,115.81716)"
       gradientUnits="userSpaceOnUse"
       y2="0"
       x2="1"
       y1="0"
       x1="0"><stop
         id="stop312"
         offset="0"
         style="stop-opacity:1;stop-color:#231f20" /><stop
         id="stop314"
         offset="1"
         style="stop-opacity:1;stop-color:#376b66" /></linearGradient><clipPath
       id="clipPath338"
       clipPathUnits="userSpaceOnUse"><path
         id="path336"
         d="m 414.972,142.519 h 8.463 v -9.115 h -8.463 z" /></clipPath><clipPath
       id="clipPath342"
       clipPathUnits="userSpaceOnUse"><path
         id="path340"
         d="m 415.17,133.413 c -0.072,10e-4 -0.138,0.041 -0.173,0.104 -0.035,0.064 -0.033,0.141 0.006,0.201 1.723,2.761 3.147,5.677 4.232,8.669 0.029,0.08 0.105,0.132 0.188,0.132 0.009,0 3.839,-0.522 3.839,-0.522 0.054,-0.008 0.102,-0.036 0.134,-0.08 0.032,-0.044 0.045,-0.099 0.036,-0.153 l -1.39,-8.006 c -0.016,-0.091 -0.092,-0.16 -0.185,-0.166 -1.893,-0.125 -3.786,-0.188 -5.626,-0.188 -0.294,0 -1.061,0.009 -1.061,0.009" /></clipPath><linearGradient
       id="linearGradient348"
       spreadMethod="pad"
       gradientTransform="matrix(8.4625092,0,0,-8.4625092,414.97241,137.96164)"
       gradientUnits="userSpaceOnUse"
       y2="0"
       x2="1"
       y1="0"
       x1="0"><stop
         id="stop344"
         offset="0"
         style="stop-opacity:1;stop-color:#231f20" /><stop
         id="stop346"
         offset="1"
         style="stop-opacity:1;stop-color:#376b66" /></linearGradient><clipPath
       id="clipPath370"
       clipPathUnits="userSpaceOnUse"><path
         id="path368"
         d="M 93.203,157.675 H 405.288 V 75.406 H 93.203 Z" /></clipPath><clipPath
       id="clipPath374"
       clipPathUnits="userSpaceOnUse"><path
         id="path372"
         d="M 372.996,157.675 C 368.7,155.706 364.37,153.812 360.009,152 304.131,128.791 244.598,117.851 185.54,106.223 158.283,100.856 131.064,95.041 103.368,92.399 100.041,92.082 96.644,91.786 93.203,91.539 l 6.3,-16.006 c 0.03,-0.076 0.104,-0.127 0.186,-0.127 h 305.399 c 0.066,0 0.128,0.033 0.165,0.088 0.038,0.055 0.045,0.124 0.021,0.185 l -20.649,52.466 z" /></clipPath><linearGradient
       id="linearGradient380"
       spreadMethod="pad"
       gradientTransform="matrix(103.49483,-209.9895,-209.9895,-103.49483,159.42364,272.48123)"
       gradientUnits="userSpaceOnUse"
       y2="0"
       x2="1"
       y1="0"
       x1="0"><stop
         id="stop376"
         offset="0"
         style="stop-opacity:1;stop-color:#376b66" /><stop
         id="stop378"
         offset="1"
         style="stop-opacity:1;stop-color:#231f20" /></linearGradient><clipPath
       id="clipPath402"
       clipPathUnits="userSpaceOnUse"><path
         id="path400"
         d="M 0,479.976 H 796.46 V 0 H 0 Z" /></clipPath><clipPath
       id="clipPath410"
       clipPathUnits="userSpaceOnUse"><path
         id="path408"
         d="M 334.574,323.78 H 516.088 V 165.584 H 334.574 Z" /></clipPath><clipPath
       id="clipPath414"
       clipPathUnits="userSpaceOnUse"><path
         id="path412"
         d="m 475.836,165.585 c -15.963,1.161 -31.941,3.466 -47.488,6.853 -40.712,28.529 -73.108,67.466 -93.756,112.634 -0.015,0.034 -0.021,0.073 -0.015,0.111 1.944,13.533 7.196,26.429 15.19,37.295 0.029,0.04 0.072,0.067 0.12,0.077 3.816,0.813 7.525,1.225 11.024,1.225 l 0.407,-10e-4 c 9.826,-0.078 18.901,-3.248 25.556,-8.924 7.889,-6.731 12.227,-16.711 16.421,-26.362 0.588,-1.355 1.175,-2.704 1.77,-4.04 6.945,-15.623 14.646,-28.086 23.539,-38.098 10.746,-12.098 23.526,-20.762 36.96,-25.054 4.3,-1.374 8.77,-2.335 13.092,-3.265 3.656,-0.786 7.435,-1.599 11.073,-2.657 9.492,-2.761 16.14,-6.81 20.322,-12.38 6.327,-8.427 6.486,-19.158 5.715,-29.499 -0.004,-0.058 -0.032,-0.11 -0.078,-0.145 -0.035,-0.026 -0.077,-0.041 -0.121,-0.041 -0.013,0 -0.025,0.001 -0.038,0.004 -2.555,0.493 -4.612,0.936 -6.476,1.393 l -1.06,0.261 c -4.417,1.092 -9.423,2.329 -14.175,2.329 -3.524,0 -6.536,-0.661 -9.208,-2.022 -3.7,-1.885 -6.745,-5.284 -8.575,-9.573 -0.032,-0.074 -0.104,-0.122 -0.184,-0.122 -0.005,0 -0.01,0 -0.015,0.001" /></clipPath><radialGradient
       id="radialGradient420"
       spreadMethod="pad"
       gradientTransform="matrix(107.00895,88.675308,173.33276,-209.16936,447.3313,266.1821)"
       gradientUnits="userSpaceOnUse"
       r="1"
       cy="0"
       cx="0"
       fy="0"
       fx="0"><stop
         id="stop416"
         offset="0"
         style="stop-opacity:1;stop-color:#231f20" /><stop
         id="stop418"
         offset="1"
         style="stop-opacity:1;stop-color:#376b66" /></radialGradient><clipPath
       id="clipPath442"
       clipPathUnits="userSpaceOnUse"><path
         id="path440"
         d="M 0,479.976 H 796.46 V 0 H 0 Z" /></clipPath><clipPath
       id="clipPath450"
       clipPathUnits="userSpaceOnUse"><path
         id="path448"
         d="M 386.304,135.348 H 511.715 V 82.3425 H 386.304 Z" /></clipPath><clipPath
       id="clipPath466"
       clipPathUnits="userSpaceOnUse"><path
         id="path464"
         d="m 382.131,161.836 h 22.17 v -30.213 h -22.17 z" /></clipPath><clipPath
       id="clipPath482"
       clipPathUnits="userSpaceOnUse"><path
         id="path480"
         d="m 397.839,161.514 h 26.606 v -36.909 h -26.606 z" /></clipPath><clipPath
       id="clipPath498"
       clipPathUnits="userSpaceOnUse"><path
         id="path496"
         d="m 422.264,146.342 h 18.19 v -26.95 h -18.19 z" /></clipPath><clipPath
       id="clipPath514"
       clipPathUnits="userSpaceOnUse"><path
         id="path512"
         d="M 463.531,156.634 H 516.57 V 118.386 H 463.531 Z" /></clipPath><clipPath
       id="clipPath530"
       clipPathUnits="userSpaceOnUse"><path
         id="path528"
         d="m 441.251,133.639 h 20.697 v -25.552 h -20.697 z" /></clipPath><clipPath
       id="clipPath546"
       clipPathUnits="userSpaceOnUse"><path
         id="path544"
         d="M 104.727,80.3425 H 564.001 V 63.614 H 104.727 Z" /></clipPath><clipPath
       id="clipPath562"
       clipPathUnits="userSpaceOnUse"><path
         id="path560"
         d="m 391.4,151.99 h 10.142 V 133.989 H 391.4 Z" /></clipPath><clipPath
       id="clipPath578"
       clipPathUnits="userSpaceOnUse"><path
         id="path576"
         d="M 308.393,321.677 H 422.591 V 173.808 H 308.393 Z" /></clipPath><clipPath
       id="clipPath594"
       clipPathUnits="userSpaceOnUse"><path
         id="path592"
         d="M 396.047,307.289 H 643.822 V 160.569 H 396.047 Z" /></clipPath><clipPath
       id="clipPath610"
       clipPathUnits="userSpaceOnUse"><path
         id="path608"
         d="M 489.582,192.013 H 739.108 V 67.7634 H 489.582 Z" /></clipPath><clipPath
       id="clipPath626"
       clipPathUnits="userSpaceOnUse"><path
         id="path624"
         d="m 607.395,167.682 h 31.221 v -12.939 h -31.221 z" /></clipPath><clipPath
       id="clipPath642"
       clipPathUnits="userSpaceOnUse"><path
         id="path640"
         d="m 414.972,142.519 h 8.463 v -9.115 h -8.463 z" /></clipPath><clipPath
       id="clipPath658"
       clipPathUnits="userSpaceOnUse"><path
         id="path656"
         d="M 95.1995,93.9536 H 405.288 V 75.406 H 95.1995 Z" /></clipPath><clipPath
       id="clipPath674"
       clipPathUnits="userSpaceOnUse"><path
         id="path672"
         d="M 0,479.976 H 796.46 V 0 H 0 Z" /></clipPath><clipPath
       id="clipPath682"
       clipPathUnits="userSpaceOnUse"><path
         id="path680"
         d="m 525.161,158.651 h 78.637 v -24.353 h -78.637 z" /></clipPath><clipPath
       id="clipPath698"
       clipPathUnits="userSpaceOnUse"><path
         id="path696"
         d="m 613.714,235.997 h 49.898 v -20.942 h -49.898 z" /></clipPath><clipPath
       id="clipPath714"
       clipPathUnits="userSpaceOnUse"><path
         id="path712"
         d="M 408.187,406.33 H 539.595 V 363.022 H 408.187 Z" /></clipPath><clipPath
       id="clipPath730"
       clipPathUnits="userSpaceOnUse"><path
         id="path728"
         d="m 300.816,366.339 h 84.003 V 294.05 h -84.003 z" /></clipPath><clipPath
       id="clipPath746"
       clipPathUnits="userSpaceOnUse"><path
         id="path744"
         d="M 56.1151,236.338 H 123.023 V 193.165 H 56.1151 Z" /></clipPath><clipPath
       id="clipPath762"
       clipPathUnits="userSpaceOnUse"><path
         id="path760"
         d="M 0,479.976 H 796.46 V 0 H 0 Z" /></clipPath></defs><g
     transform="matrix(1.3333333,0,0,-1.3333333,0,639.968)"
     id="g10"><g
       id="g12"><g
         clip-path="url(#clipPath18)"
         id="g14"><g
           transform="translate(386.3946,183.612)"
           id="g20"><path
             id="path22"
             style="fill:#000000;fill-opacity:1;fill-rule:nonzero;stroke:none"
             d="M 0,0 C 1.859,-1.562 3.638,-3.013 5.36,-4.37 1.638,-7.573 -0.4,-12.187 -1.652,-15.02 L -6.61,-26.245 -26.851,25.168 C -18.477,16.398 -9.495,7.979 0,0 m 358.148,-78.52 c -1.803,5.052 -6.139,7.696 -9.62,9.818 -0.827,0.505 -1.682,1.026 -2.426,1.537 -6.332,4.353 -10.207,12.681 -13.319,19.372 l -33.058,71.05 c -5.637,12.115 -12.651,27.192 -25.717,36.215 -8.391,5.796 -19.045,8.86 -30.807,8.86 -4.076,0 -8.286,-0.37 -12.516,-1.1 -3.499,-0.604 -7.061,-1.443 -10.821,-2.553 -12.3,17.252 -18.812,39.799 -24.424,61.491 -7.647,29.559 -15.554,60.125 -37.88,81.672 -16.396,15.825 -40.059,25.385 -66.63,26.921 -2.688,0.156 -5.44,0.235 -8.179,0.235 -18.356,0 -38.126,-3.378 -62.217,-10.631 -18.754,-5.646 -45.385,-15.424 -62.294,-35.438 -1.758,-0.005 -3.513,-0.108 -5.215,-0.307 -17.342,-2.022 -33.65,-15.364 -40.577,-33.2 -1.896,-4.883 -3.171,-10.16 -3.79,-15.686 -0.024,-0.118 -0.043,-0.236 -0.055,-0.354 -0.226,-2.079 -0.356,-4.149 -0.387,-6.153 -0.007,-0.427 0.055,-0.852 0.183,-1.26 0.758,-2.412 1.489,-4.629 2.234,-6.777 6.734,-19.42 16.096,-38.386 27.87,-56.48 H -355.5 c -1.721,0 -3.327,-0.849 -4.3,-2.274 -0.968,-1.424 -1.17,-3.23 -0.539,-4.831 l 67.978,-172.72 c 0.746,-1.893 2.486,-3.152 4.493,-3.283 v -6.602 c 0,-2.867 2.333,-5.2 5.2,-5.2 h 461.274 c 2.867,0 5.2,2.333 5.2,5.2 v 0.855 c 14.744,-1.271 29.567,-1.915 44.127,-1.915 19.629,0 39.45,1.14 58.915,3.389 21.346,2.464 43.606,6.541 61.798,19.575 3.147,2.254 13.138,10.401 9.502,20.574" /></g></g></g><g
       id="g24"><g
         clip-path="url(#clipPath30)"
         id="g26"><g
           transform="translate(475.8365,165.5847)"
           id="g32"><path
             id="path34"
             style="fill:#376b66;fill-opacity:1;fill-rule:nonzero;stroke:none"
             d="m 0,0 c -15.964,1.161 -31.941,3.467 -47.488,6.854 -40.713,28.528 -73.108,67.465 -93.756,112.633 -0.016,0.034 -0.022,0.073 -0.016,0.111 1.944,13.533 7.197,26.429 15.191,37.296 0.029,0.039 0.071,0.066 0.119,0.077 3.817,0.812 7.526,1.225 11.024,1.225 l 0.407,-0.002 c 9.827,-0.078 18.902,-3.247 25.556,-8.924 7.89,-6.731 12.227,-16.71 16.421,-26.362 0.589,-1.354 1.176,-2.703 1.77,-4.04 6.946,-15.623 14.646,-28.085 23.54,-38.098 10.746,-12.098 23.526,-20.761 36.96,-25.054 4.299,-1.374 8.769,-2.335 13.091,-3.265 3.657,-0.786 7.436,-1.599 11.074,-2.657 9.492,-2.76 16.139,-6.81 20.322,-12.38 C 40.541,28.987 40.7,18.256 39.93,7.915 39.926,7.857 39.897,7.806 39.852,7.771 39.816,7.744 39.774,7.729 39.73,7.729 c -0.012,0 -0.025,0.001 -0.038,0.004 -2.554,0.494 -4.612,0.936 -6.475,1.393 l -1.061,0.262 c -4.417,1.091 -9.423,2.329 -14.175,2.329 -3.524,0 -6.536,-0.661 -9.208,-2.023 C 5.073,7.81 2.028,4.41 0.198,0.121 0.167,0.047 0.095,-0.001 0.015,-0.001 0.01,-0.001 0.005,-0.001 0,0" /></g><g
           transform="translate(426.4048,82.3425)"
           id="g36"><path
             id="path38"
             style="fill:#376b66;fill-opacity:1;fill-rule:nonzero;stroke:none"
             d="m 0,0 c -8.604,1.84 -16.956,4.679 -24.869,8.441 -0.046,0.022 -0.082,0.061 -0.1,0.108 l -15.118,38.413 c -0.03,0.076 -0.011,0.163 0.048,0.219 1.678,1.582 2.905,3.567 3.884,5.3 0.029,0.049 0.076,0.084 0.131,0.097 0.015,0.003 0.029,0.005 0.044,0.005 0.041,0 0.082,-0.013 0.116,-0.037 1.729,-1.233 3.638,-2.187 5.677,-2.834 0.1,-0.031 0.159,-0.137 0.133,-0.239 -0.529,-2.119 -0.873,-4.347 0.177,-6.285 0.99,-1.829 3.041,-2.92 5.485,-2.92 0.701,0 1.378,0.092 2.014,0.277 2.652,0.767 4.65,2.7 6.256,4.49 1.062,1.188 2.097,2.492 3.16,3.989 0.038,0.053 0.099,0.084 0.163,0.084 h 0.006 c 0.876,-0.027 1.749,-0.049 2.624,-0.049 1.61,0 3.304,0.054 5.176,0.168 0.004,0.001 0.008,0.001 0.012,0.001 0.056,0 0.111,-0.025 0.149,-0.067 0.04,-0.046 0.059,-0.107 0.048,-0.168 l -1.082,-6.227 c -0.239,-1.381 -0.536,-3.099 0.143,-4.697 0.5,-1.175 1.496,-2.099 2.804,-2.601 0.726,-0.279 1.502,-0.419 2.31,-0.419 0.959,0 1.907,0.206 2.741,0.596 2.77,1.293 4.383,4.084 5.353,6.069 1.695,3.468 2.817,7.209 3.336,11.118 0.014,0.1 0.099,0.174 0.199,0.174 0.003,0 7.012,-0.42 7.012,-0.42 0.088,-0.005 0.161,-0.066 0.183,-0.151 0.02,-0.085 -0.016,-0.174 -0.091,-0.219 -0.649,-0.395 -1.256,-0.763 -1.867,-1.119 -0.691,-0.401 -1.381,-0.8 -2.079,-1.186 -0.121,-0.814 -0.232,-1.631 -0.336,-2.449 -0.654,-5.149 -0.989,-10.277 -0.996,-15.246 -0.004,-2.721 0.298,-5.732 2.564,-7.438 0.901,-0.677 2.007,-1.036 3.199,-1.036 1.52,0 3.091,0.564 4.312,1.546 1.649,1.33 2.855,3.382 3.688,6.274 0.712,2.474 1.065,5.087 1.049,7.77 0,0.082 0.05,0.156 0.126,0.187 2.691,1.07 5.373,2.195 7.974,3.345 0.026,0.012 0.054,0.018 0.081,0.018 0.051,0 0.1,-0.02 0.139,-0.057 5.786,-5.579 13.673,-8.778 21.641,-8.778 0.505,0 1.01,0.014 1.516,0.039 0.604,0.031 1.203,0.098 1.802,0.166 0.006,10e-4 0.014,0.002 0.022,0.002 0.084,0 0.159,-0.053 0.188,-0.133 C 65.921,20.792 74.25,9.116 85.235,0.356 85.302,0.304 85.327,0.215 85.299,0.134 85.271,0.054 85.195,0 85.11,0 Z" /></g><g
           transform="translate(195.2677,122.0388)"
           id="g40"><path
             id="path42"
             style="fill:#231f20;fill-opacity:1;fill-rule:nonzero;stroke:none"
             d="m 0,0 c -2.038,0 -4.162,0.258 -6.313,0.766 -7.583,1.788 -14.901,6.509 -20.605,13.296 -5.705,6.786 -9.098,14.806 -9.556,22.584 -0.451,7.668 2.016,14.172 6.944,18.315 3.461,2.909 7.937,4.447 12.947,4.447 9.443,0 19.498,-5.253 26.895,-14.052 C 16.016,38.57 19.409,30.55 19.867,22.772 20.318,15.104 17.852,8.6 12.923,4.457 9.455,1.541 4.986,0 0,0" /></g><g
           transform="translate(445.0201,108.0866)"
           id="g44"><path
             id="path46"
             style="fill:#dfb28b;fill-opacity:1;fill-rule:nonzero;stroke:none"
             d="m 0,0 c -0.772,0 -1.446,0.213 -2.002,0.632 -1.564,1.176 -1.771,3.61 -1.768,5.837 0.008,5.335 0.401,10.836 1.167,16.35 0.009,0.062 0.046,0.117 0.1,0.147 2.013,1.138 4.024,2.36 5.977,3.635 0.92,0.599 1.831,1.212 2.733,1.839 3.124,2.17 6.106,4.467 8.862,6.827 0.419,0.358 0.468,0.99 0.11,1.409 -0.19,0.221 -0.467,0.348 -0.76,0.348 -0.239,0 -0.47,-0.085 -0.65,-0.239 C 10.404,33.908 6.777,31.178 2.987,28.672 2.954,28.65 2.916,28.639 2.877,28.639 c -0.004,0 -12.445,0.743 -12.445,0.743 -0.039,-0.665 -0.11,-1.329 -0.197,-1.99 -0.487,-3.701 -1.55,-7.247 -3.162,-10.543 -0.838,-1.714 -2.205,-4.111 -4.403,-5.137 -0.57,-0.266 -1.226,-0.406 -1.896,-0.406 -0.554,0 -1.105,0.098 -1.592,0.286 -0.565,0.216 -1.313,0.654 -1.679,1.515 -0.417,0.979 -0.261,2.15 -0.013,3.579 l 4.083,23.503 c 0.129,0.741 0.264,1.384 0.611,1.755 0.465,0.495 1.399,0.59 2.315,0.644 L 8.336,43.99 c 0.267,0.016 0.512,0.135 0.688,0.334 0.178,0.2 0.267,0.456 0.251,0.723 -0.031,0.535 -0.489,0.938 -1.065,0.938 -0.045,-0.003 -23.828,-1.401 -23.828,-1.401 -0.974,-0.057 -2.603,-0.149 -3.657,-1.271 -0.784,-0.837 -0.979,-1.958 -1.121,-2.776 l -0.781,-4.493 c -0.016,-0.097 -0.101,-0.166 -0.197,-0.166 -0.009,0 -3.483,0.474 -3.483,0.474 -0.058,0.007 -0.11,0.041 -0.141,0.09 -0.032,0.049 -0.04,0.11 -0.023,0.166 0.494,1.621 0.865,3.064 1.132,4.413 0.108,0.541 -0.245,1.068 -0.785,1.175 -0.066,0.013 -0.134,0.021 -0.201,0.021 -0.473,0 -0.883,-0.339 -0.975,-0.807 -0.295,-1.492 -0.702,-3.047 -1.244,-4.751 -0.206,-0.648 -0.427,-1.291 -0.664,-1.929 -1.228,-3.325 -2.83,-6.464 -4.76,-9.331 -0.438,-0.65 -0.905,-1.283 -1.378,-1.91 -0.008,-0.011 -0.017,-0.021 -0.026,-0.031 -0.827,-1.1 -1.565,-2.007 -2.307,-2.833 -1.414,-1.578 -3.151,-3.276 -5.319,-3.902 -0.459,-0.133 -0.968,-0.204 -1.471,-0.204 -1.305,0 -2.966,0.494 -3.715,1.879 -0.772,1.425 -0.401,3.259 0.046,5.016 l 7.21,27.685 c 0.1,0.381 0.203,0.745 0.314,1.091 0.353,1.106 0.741,1.754 1.295,2.166 0.515,0.384 1.212,0.571 2.134,0.571 0.644,0 1.337,-0.09 1.989,-0.187 5.542,-0.827 11.107,-1.866 16.544,-3.087 0.075,-0.016 0.151,-0.025 0.223,-0.025 0.469,0 0.869,0.321 0.972,0.782 0.12,0.537 -0.219,1.073 -0.757,1.194 -5.499,1.235 -11.114,2.283 -16.687,3.115 -0.682,0.101 -1.485,0.205 -2.279,0.205 -1.373,0 -2.463,-0.316 -3.333,-0.964 -1.392,-1.036 -1.906,-2.652 -2.35,-4.357 l -0.562,-2.156 C -46.986,43.348 -51.436,36.83 -55.239,29.999 l -0.998,-1.796 c -0.874,-1.571 -1.853,-3.216 -3.093,-4.6 -0.038,-0.042 -0.093,-0.067 -0.149,-0.067 -0.012,0 -0.023,10e-4 -0.035,0.003 -0.069,0.013 -0.126,0.06 -0.151,0.124 l -4.731,12.022 c -0.02,0.049 -0.019,0.105 0.002,0.154 L -54.606,58 c 1.925,4.357 4.143,8.727 8.199,10.098 0.868,0.294 1.813,0.436 2.887,0.436 0.296,0 0.594,-0.011 0.893,-0.031 1.737,-0.119 3.529,-0.565 5.207,-1.029 l 0.783,-0.217 c 6.273,-1.761 12.704,-3.366 19.117,-4.773 1.698,-0.372 3.398,-0.724 5.099,-1.071 13.997,-2.846 28.347,-4.825 42.65,-5.884 l 2.084,-0.153 c 5.756,-0.391 11.692,-0.636 17.655,-0.729 0.051,-10e-4 0.098,-0.02 0.136,-0.055 8.472,-8.11 15.68,-17.582 21.421,-28.154 0.046,-0.084 0.026,-0.188 -0.047,-0.249 C 61.392,17.784 53.245,12.266 43.816,10.726 c -0.674,-0.111 -1.354,-0.2 -2.02,-0.264 L 41.452,10.428 C 41.074,10.39 40.747,10.357 40.414,10.34 39.927,10.313 39.438,10.3 38.95,10.3 c -7.162,0 -14.343,2.83 -19.701,7.762 -0.588,0.542 -1.09,1.039 -1.535,1.517 -0.432,-0.194 -0.863,-0.383 -1.297,-0.572 l -0.63,-0.275 C 13.498,17.728 11.193,16.761 8.938,15.858 L 8.246,15.578 C 7.83,15.409 7.413,15.24 6.995,15.077 7.037,14.407 7.051,13.707 7.037,12.936 6.993,10.648 6.669,8.44 6.072,6.372 5.357,3.89 4.369,2.165 3.051,1.102 2.192,0.412 1.053,0 0,0" /></g><g
           transform="translate(104.9268,63.614)"
           id="g48"><path
             id="path50"
             style="fill:#e6e7e8;fill-opacity:1;fill-rule:nonzero;stroke:none"
             d="m 0,0 c -0.11,0 -0.2,0.09 -0.2,0.2 v 9.392 c 0,0.11 0.09,0.2 0.2,0.2 h 301.923 c 0.331,0 0.64,0.163 0.827,0.437 0.186,0.274 0.225,0.621 0.103,0.929 l -2.084,5.297 c -0.025,0.062 -0.017,0.131 0.02,0.186 0.038,0.054 0.099,0.088 0.166,0.088 h 108.81 c 0.043,0 0.086,-0.015 0.12,-0.042 0.103,-0.076 0.366,-0.273 0.441,-0.324 0.171,-0.121 0.369,-0.183 0.575,-0.183 0.326,0 0.632,0.158 0.817,0.424 0.036,0.061 0.112,0.125 0.183,0.125 h 46.973 c 0.11,0 0.2,-0.09 0.2,-0.201 V 0.2 c 0,-0.11 -0.09,-0.2 -0.2,-0.2 z" /></g><g
           transform="translate(396.7564,133.989)"
           id="g52"><path
             id="path54"
             style="fill:#dfb28b;fill-opacity:1;fill-rule:nonzero;stroke:none"
             d="m 0,0 c -0.021,0 -0.042,0.004 -0.062,0.01 -1.884,0.612 -3.638,1.511 -5.213,2.674 -0.081,0.059 -0.105,0.17 -0.056,0.257 2.811,5.068 6.094,10.107 9.757,14.98 0.039,0.052 0.099,0.08 0.16,0.08 0.029,0 0.059,-0.007 0.087,-0.021 0.086,-0.041 0.131,-0.137 0.106,-0.23 L 0.193,0.149 C 0.18,0.097 0.145,0.051 0.096,0.024 0.066,0.009 0.033,0 0,0" /></g><g
           transform="translate(614.4322,67.7634)"
           id="g56"><path
             id="path58"
             style="fill:#376b66;fill-opacity:1;fill-rule:nonzero;stroke:none"
             d="m 0,0 c -16.029,0 -32.264,0.771 -48.25,2.294 -0.104,0.01 -0.182,0.096 -0.182,0.199 v 11.086 c 0,0.552 -0.448,1 -1,1 h -49.515 c -0.042,0 -0.084,0.014 -0.118,0.039 -11.635,8.485 -20.788,20.673 -25.773,34.319 -0.02,0.054 -0.016,0.116 0.014,0.167 0.029,0.051 0.079,0.086 0.136,0.097 10.371,1.943 19.422,8.577 27.659,15.457 0.036,0.03 0.081,0.047 0.128,0.047 0.012,0 0.026,-0.001 0.04,-0.004 0.058,-0.013 0.109,-0.051 0.137,-0.104 5.419,-10.498 9.139,-21.516 11.057,-32.745 0.082,-0.483 0.496,-0.832 0.984,-0.832 0.055,0 0.113,0.004 0.168,0.014 0.266,0.045 0.495,0.19 0.649,0.408 0.155,0.218 0.216,0.483 0.17,0.745 -1.995,11.678 -5.888,23.102 -11.57,33.952 -0.316,0.604 -0.635,1.207 -0.963,1.805 -5.464,10.015 -12.261,19.091 -20.2,26.977 -0.69,0.684 -1.386,1.362 -2.093,2.029 -0.007,0.006 -0.014,0.012 -0.02,0.018 -1.368,1.29 -2.745,2.526 -4.084,3.667 -0.181,0.154 -0.41,0.239 -0.648,0.239 -0.294,0 -0.572,-0.128 -0.761,-0.351 -0.174,-0.204 -0.257,-0.462 -0.236,-0.73 0.021,-0.265 0.144,-0.507 0.348,-0.68 0.635,-0.54 1.253,-1.1 1.87,-1.661 0.063,-0.056 0.127,-0.185 0.096,-0.263 -0.03,-0.077 -0.063,-0.166 -0.144,-0.166 h -0.003 c -4.69,0.112 -9.37,0.317 -13.91,0.611 -0.066,0.004 -0.126,0.041 -0.16,0.098 -0.033,0.057 -0.036,0.127 -0.008,0.188 1.691,3.513 4.272,6.288 7.268,7.814 2.404,1.225 5.122,1.821 8.306,1.821 4.435,0 9.14,-1.163 13.689,-2.287 l 1.064,-0.262 c 2.023,-0.497 4.251,-0.974 7.01,-1.5 l 0.691,-0.135 c 0.439,-0.087 0.856,-0.169 1.28,-0.244 9.422,-1.683 19.576,-2.724 30.326,-3.825 14.505,-1.487 30.875,-3.164 48.058,-6.793 l 0.739,-0.156 c 0.563,-0.118 1.107,-0.232 1.654,-0.353 0.785,-0.174 1.576,-0.358 2.365,-0.542 l 0.504,-0.118 c 0.912,-0.212 1.823,-0.431 2.738,-0.654 29.078,-7.126 54.709,-19.225 78.358,-36.989 0.175,-0.131 0.382,-0.2 0.6,-0.2 0.313,0 0.612,0.149 0.801,0.399 0.33,0.442 0.241,1.07 -0.2,1.401 -23.074,17.332 -47.921,29.288 -75.957,36.551 -0.084,0.021 -0.143,0.093 -0.149,0.179 -0.006,0.085 0.043,0.165 0.122,0.199 9.88,4.105 20.158,7.302 30.549,9.501 0.261,0.055 0.485,0.21 0.631,0.433 0.145,0.225 0.195,0.491 0.14,0.751 -0.097,0.461 -0.509,0.794 -0.979,0.794 -0.07,0 -0.138,-0.007 -0.205,-0.021 -11.53,-2.44 -22.906,-6.093 -33.815,-10.862 -0.025,-0.01 -0.052,-0.016 -0.08,-0.016 -0.015,0 -0.031,0.002 -0.047,0.006 -1.965,0.474 -3.999,0.938 -6.219,1.417 -0.066,0.014 -0.12,0.06 -0.144,0.122 -3.385,8.454 -5.164,17.622 -5.146,26.51 0,0.268 -0.104,0.519 -0.292,0.707 -0.188,0.19 -0.44,0.294 -0.709,0.295 -0.55,0 -0.998,-0.448 -0.999,-0.998 -0.018,-8.583 1.617,-17.498 4.726,-25.781 0.025,-0.068 0.012,-0.145 -0.035,-0.2 -0.039,-0.045 -0.095,-0.071 -0.152,-0.071 -0.014,0 -0.027,0.002 -0.04,0.004 -16.638,3.404 -32.533,5.032 -46.557,6.468 -10.711,1.098 -20.827,2.135 -30.246,3.817 -0.101,0.018 -0.172,0.11 -0.164,0.211 0.772,10.354 0.653,22.149 -6.083,31.124 -4.451,5.927 -11.44,10.212 -21.364,13.099 -3.697,1.075 -7.515,1.897 -11.209,2.691 -4.287,0.922 -8.697,1.871 -12.905,3.216 -13.093,4.183 -25.566,12.647 -36.073,24.476 -8.756,9.858 -16.347,22.151 -23.209,37.583 -0.593,1.336 -1.18,2.685 -1.768,4.039 -4.282,9.852 -8.71,20.04 -16.952,27.072 -7.011,5.982 -16.543,9.321 -26.838,9.402 l -0.278,0.001 c -3.061,0 -6.254,-0.289 -9.489,-0.858 -0.851,-0.15 -1.778,-0.34 -2.915,-0.598 -4.99,-1.132 -10.051,-2.912 -15.04,-5.29 -0.498,-0.237 -0.71,-0.835 -0.473,-1.333 0.165,-0.346 0.52,-0.569 0.904,-0.569 0.149,0 0.294,0.032 0.429,0.096 3.875,1.848 7.859,3.342 11.843,4.443 0.017,0.005 0.035,0.007 0.053,0.007 0.064,0 0.125,-0.031 0.163,-0.084 0.048,-0.068 0.049,-0.16 0.002,-0.229 -6.676,-9.762 -11.326,-21.144 -13.447,-32.916 -0.218,-1.21 -0.412,-2.434 -0.575,-3.636 -0.83,-6.113 -0.999,-12.212 -0.503,-18.126 0.044,-0.514 0.481,-0.917 0.996,-0.917 0.634,0.05 1.043,0.535 0.997,1.084 -0.372,4.429 -0.351,9.061 0.061,13.767 0.008,0.09 0.075,0.163 0.164,0.179 0.012,0.002 0.023,0.004 0.035,0.004 0.076,0 0.147,-0.044 0.181,-0.115 19.986,-42.119 50.44,-78.952 88.068,-106.519 0.077,-0.055 0.104,-0.158 0.064,-0.245 -0.034,-0.072 -0.105,-0.116 -0.182,-0.116 -0.016,0 -0.03,0.002 -0.046,0.006 -4.684,1.108 -9.2,2.27 -13.421,3.455 -1.649,0.463 -3.701,1.039 -5.777,1.26 -4.065,2.791 -8.091,5.903 -12.765,9.83 -17.276,14.515 -32.709,30.391 -45.87,47.188 l -4.709,11.943 c -0.152,0.385 -0.517,0.633 -0.931,0.633 h -3.571 c -0.065,0 -0.126,0.033 -0.164,0.086 -15.23,21.81 -26.777,44.985 -34.321,68.882 0.175,7.048 1.458,13.654 3.806,19.699 6.118,15.753 20.391,27.522 35.515,29.285 1.498,0.174 3.052,0.263 4.62,0.263 l 0.319,-10e-4 c 0.774,-0.006 1.573,-0.037 2.442,-0.095 15.786,-1.044 30.359,-10.782 42.779,-19.827 l 0.501,-0.364 c 15.361,-11.188 31.245,-22.757 50.015,-22.837 0.552,0 1.001,0.446 1.003,0.996 0.002,0.551 -0.446,1.001 -0.996,1.004 -18.121,0.077 -33.74,11.452 -48.845,22.453 l -0.501,0.366 c -12.145,8.844 -26.413,18.417 -42.069,20.055 -0.074,0.007 -0.137,0.055 -0.165,0.124 -0.028,0.068 -0.015,0.147 0.033,0.203 15.874,18.88 41.527,28.234 59.442,33.627 23.494,7.073 42.696,10.367 60.427,10.367 2.626,0 5.259,-0.076 7.825,-0.224 25.091,-1.45 47.352,-10.397 62.682,-25.193 21.068,-20.333 28.753,-50.038 36.184,-78.766 5.943,-22.968 12.894,-46.928 26.646,-65.271 0.038,-0.051 0.05,-0.117 0.031,-0.178 -0.018,-0.061 -0.065,-0.11 -0.126,-0.131 -8.105,-2.788 -15.901,-6.356 -23.44,-9.807 -0.243,-0.112 -0.428,-0.31 -0.521,-0.56 -0.094,-0.251 -0.084,-0.523 0.028,-0.765 0.162,-0.355 0.518,-0.585 0.908,-0.585 0.145,0 0.285,0.03 0.416,0.091 7.779,3.56 15.82,7.24 24.156,10.037 0.677,0.227 1.355,0.451 2.036,0.666 4.288,1.353 8.268,2.338 12.166,3.011 3.885,0.67 7.742,1.009 11.465,1.009 10.497,0 19.931,-2.684 27.281,-7.761 11.677,-8.065 18.3,-22.297 23.621,-33.733 L 99.124,65.44 c 3.431,-7.375 7.7,-16.552 15.429,-21.866 0.883,-0.606 1.82,-1.178 2.726,-1.729 3.048,-1.86 5.927,-3.616 6.992,-6.6 2.175,-6.086 -5.016,-11.834 -7.272,-13.45 C 99.952,9.582 78.617,5.707 58.102,3.338 38.909,1.123 19.361,0 0,0" /></g><g
           transform="translate(415.1705,133.4128)"
           id="g60"><path
             id="path62"
             style="fill:#dfb28b;fill-opacity:1;fill-rule:nonzero;stroke:none"
             d="m 0,0 c -0.072,0.001 -0.139,0.041 -0.174,0.104 -0.034,0.064 -0.032,0.141 0.006,0.202 1.724,2.76 3.147,5.676 4.232,8.669 0.03,0.08 0.106,0.131 0.189,0.131 0.009,0 3.839,-0.522 3.839,-0.522 C 8.146,8.576 8.193,8.548 8.226,8.504 8.258,8.46 8.271,8.405 8.262,8.352 L 6.871,0.345 C 6.855,0.254 6.779,0.186 6.687,0.18 4.794,0.055 2.9,-0.009 1.061,-0.009 0.767,-0.009 0,0 0,0" /></g><g
           transform="translate(178.6563,183.4265)"
           id="g64"><path
             id="path66"
             style="fill:#e6e7e8;fill-opacity:1;fill-rule:nonzero;stroke:none"
             d="m 0,0 c -5.483,0 -10.395,-1.692 -14.206,-4.896 -5.424,-4.559 -8.142,-11.649 -7.653,-19.963 0.483,-8.204 4.041,-16.641 10.021,-23.754 5.979,-7.114 13.677,-12.07 21.676,-13.956 2.308,-0.544 4.59,-0.82 6.783,-0.82 5.456,0 10.367,1.703 14.2,4.927 5.425,4.56 8.143,11.649 7.654,19.964 -0.483,8.204 -4.041,16.641 -10.021,23.754 C 20.692,-5.512 10.055,0 0,0 m -78.968,-108.021 c -0.082,0 -0.156,0.051 -0.186,0.127 l -67.033,170.318 c -0.024,0.061 -0.016,0.131 0.021,0.186 0.038,0.055 0.099,0.087 0.166,0.087 h 305.398 c 0.082,0 0.156,-0.05 0.186,-0.127 l 1.801,-4.556 c 0.013,-0.033 0.017,-0.076 0.012,-0.11 l 2.683,-6.735 c 0.013,-0.031 0.017,-0.076 0.012,-0.11 l 41.876,-106.34 20.65,-52.466 c 0.024,-0.062 0.016,-0.131 -0.021,-0.186 -0.037,-0.054 -0.099,-0.088 -0.165,-0.088 z" /></g></g></g><g
       id="g68"><g
         clip-path="url(#clipPath74)"
         id="g70"><g
           id="g76"><g
             id="g78" /><g
             id="g106"><g
               style="opacity:0.10000598"
               id="g104"
               clip-path="url(#clipPath82)"><g
                 id="g102"><g
                   id="g100"
                   clip-path="url(#clipPath86)"><g
                     id="g98"><g
                       id="g96"><path
                         id="path94"
                         style="fill:url(#linearGradient92);stroke:none"
                         d="m 475.836,165.585 c -15.963,1.161 -31.941,3.466 -47.488,6.853 -40.712,28.529 -73.108,67.466 -93.756,112.634 -0.015,0.034 -0.021,0.073 -0.015,0.111 1.944,13.533 7.196,26.429 15.19,37.295 0.029,0.04 0.072,0.067 0.12,0.077 3.816,0.813 7.525,1.225 11.024,1.225 l 0.407,-10e-4 c 9.826,-0.078 18.901,-3.248 25.556,-8.924 7.889,-6.731 12.227,-16.711 16.421,-26.362 0.588,-1.355 1.175,-2.704 1.77,-4.04 6.945,-15.623 14.646,-28.086 23.539,-38.098 10.746,-12.098 23.526,-20.762 36.96,-25.054 4.3,-1.374 8.77,-2.335 13.092,-3.265 3.656,-0.786 7.435,-1.599 11.073,-2.657 9.492,-2.761 16.14,-6.81 20.322,-12.38 6.327,-8.427 6.486,-19.158 5.715,-29.499 -0.004,-0.058 -0.032,-0.11 -0.078,-0.145 -0.035,-0.026 -0.077,-0.041 -0.121,-0.041 -0.013,0 -0.025,0.001 -0.038,0.004 -2.555,0.493 -4.612,0.936 -6.476,1.393 l -1.06,0.261 c -4.417,1.092 -9.423,2.329 -14.175,2.329 -3.524,0 -6.536,-0.661 -9.208,-2.022 -3.7,-1.885 -6.745,-5.284 -8.575,-9.573 -0.032,-0.074 -0.104,-0.122 -0.184,-0.122 -0.005,0 -0.01,0 -0.015,0.001" /></g></g></g></g></g></g></g><g
           id="g108"><g
             id="g110" /><g
             id="g138"><g
               style="opacity:0.10000598"
               id="g136"
               clip-path="url(#clipPath114)"><g
                 id="g134"><g
                   id="g132"
                   clip-path="url(#clipPath118)"><g
                     id="g130"><g
                       id="g128"><path
                         id="path126"
                         style="fill:url(#linearGradient124);stroke:none"
                         d="m 426.405,82.342 c -8.604,1.84 -16.956,4.679 -24.869,8.442 -0.046,0.021 -0.082,0.06 -0.1,0.107 l -15.119,38.413 c -0.029,0.077 -0.01,0.163 0.049,0.219 1.678,1.582 2.905,3.568 3.884,5.301 0.028,0.049 0.076,0.084 0.131,0.097 0.015,0.003 0.029,0.005 0.043,0.005 0.042,0 0.082,-0.013 0.117,-0.038 1.729,-1.233 3.638,-2.186 5.676,-2.834 0.101,-0.031 0.16,-0.136 0.134,-0.239 -0.529,-2.119 -0.873,-4.347 0.176,-6.284 0.991,-1.829 3.042,-2.921 5.486,-2.921 0.7,0 1.378,0.093 2.014,0.277 2.652,0.767 4.65,2.701 6.256,4.491 1.062,1.187 2.096,2.492 3.16,3.989 0.038,0.053 0.099,0.084 0.163,0.084 h 0.006 c 0.876,-0.027 1.749,-0.05 2.624,-0.05 1.61,0 3.304,0.055 5.176,0.168 0.004,0.001 0.007,0.001 0.011,0.001 0.057,0 0.112,-0.024 0.15,-0.066 0.04,-0.046 0.058,-0.108 0.048,-0.168 l -1.082,-6.228 c -0.24,-1.381 -0.536,-3.099 0.143,-4.696 0.5,-1.176 1.496,-2.1 2.804,-2.602 0.725,-0.278 1.502,-0.419 2.309,-0.419 0.959,0 1.908,0.206 2.742,0.596 2.77,1.294 4.382,4.084 5.353,6.069 1.695,3.468 2.817,7.209 3.336,11.119 0.014,0.099 0.099,0.173 0.198,0.173 0.004,0 7.013,-0.42 7.013,-0.42 0.088,-0.004 0.161,-0.066 0.183,-0.151 0.02,-0.085 -0.016,-0.174 -0.091,-0.219 -0.65,-0.394 -1.256,-0.762 -1.867,-1.119 -0.691,-0.4 -1.381,-0.8 -2.079,-1.185 -0.122,-0.815 -0.232,-1.631 -0.336,-2.45 -0.655,-5.148 -0.99,-10.277 -0.996,-15.246 -0.004,-2.72 0.297,-5.731 2.564,-7.437 0.9,-0.678 2.007,-1.036 3.199,-1.036 1.52,0 3.091,0.563 4.312,1.546 1.649,1.33 2.855,3.381 3.688,6.274 0.712,2.474 1.065,5.087 1.049,7.77 0,0.082 0.05,0.156 0.126,0.186 2.69,1.07 5.373,2.195 7.974,3.346 0.026,0.011 0.053,0.017 0.081,0.017 0.05,0 0.1,-0.019 0.138,-0.056 5.787,-5.579 13.674,-8.779 21.642,-8.779 0.505,0 1.01,0.014 1.516,0.039 0.604,0.032 1.203,0.098 1.801,0.166 0.007,0.001 0.015,0.002 0.023,0.002 0.084,0 0.159,-0.052 0.188,-0.132 4.774,-13.33 13.103,-25.005 24.088,-33.765 0.067,-0.053 0.092,-0.142 0.064,-0.223 -0.028,-0.08 -0.104,-0.134 -0.189,-0.134 z" /></g></g></g></g></g></g></g><g
           id="g140"><g
             id="g142" /><g
             id="g170"><g
               style="opacity:0.10000598"
               id="g168"
               clip-path="url(#clipPath146)"><g
                 id="g166"><g
                   id="g164"
                   clip-path="url(#clipPath150)"><g
                     id="g162"><g
                       id="g160"><path
                         id="path158"
                         style="fill:url(#linearGradient156);stroke:none"
                         d="m 195.268,122.039 c -2.038,0 -4.162,0.258 -6.314,0.765 -7.583,1.788 -14.9,6.51 -20.605,13.296 -5.704,6.786 -9.097,14.807 -9.555,22.584 -0.451,7.669 2.015,14.173 6.944,18.316 3.46,2.909 7.937,4.447 12.946,4.447 9.444,0 19.498,-5.253 26.895,-14.052 5.704,-6.786 9.098,-14.806 9.555,-22.584 0.452,-7.669 -2.015,-14.173 -6.943,-18.315 -3.469,-2.916 -7.937,-4.457 -12.923,-4.457" /></g></g></g></g></g></g></g><g
           id="g172"><g
             id="g174" /><g
             id="g202"><g
               style="opacity:0.10000598"
               id="g200"
               clip-path="url(#clipPath178)"><g
                 id="g198"><g
                   id="g196"
                   clip-path="url(#clipPath182)"><g
                     id="g194"><g
                       id="g192"><path
                         id="path190"
                         style="fill:url(#linearGradient188);stroke:none"
                         d="m 104.927,63.614 c -0.111,0 -0.2,0.09 -0.2,0.2 v 9.392 c 0,0.11 0.089,0.2 0.2,0.2 H 406.85 c 0.331,0 0.64,0.163 0.826,0.437 0.187,0.274 0.226,0.621 0.104,0.929 l -2.085,5.297 c -0.024,0.062 -0.016,0.131 0.021,0.186 0.037,0.054 0.099,0.087 0.165,0.087 h 108.811 c 0.043,0 0.086,-0.014 0.12,-0.041 0.103,-0.076 0.366,-0.273 0.441,-0.324 0.17,-0.121 0.369,-0.183 0.575,-0.183 0.326,0 0.632,0.158 0.817,0.423 0.036,0.062 0.111,0.125 0.183,0.125 H 563.8 c 0.111,0 0.201,-0.089 0.201,-0.2 V 63.814 c 0,-0.11 -0.09,-0.2 -0.201,-0.2 z" /></g></g></g></g></g></g></g><g
           id="g204"><g
             id="g206" /><g
             id="g234"><g
               style="opacity:0.10000598"
               id="g232"
               clip-path="url(#clipPath210)"><g
                 id="g230"><g
                   id="g228"
                   clip-path="url(#clipPath214)"><g
                     id="g226"><g
                       id="g224"><path
                         id="path222"
                         style="fill:url(#linearGradient220);stroke:none"
                         d="m 396.756,133.989 c -0.021,0 -0.041,0.004 -0.062,0.01 -1.884,0.612 -3.638,1.511 -5.212,2.674 -0.082,0.059 -0.105,0.169 -0.057,0.257 2.811,5.068 6.094,10.107 9.758,14.98 0.038,0.052 0.098,0.08 0.159,0.08 0.03,0 0.059,-0.007 0.087,-0.021 0.086,-0.041 0.131,-0.137 0.107,-0.23 l -4.586,-17.601 c -0.014,-0.052 -0.049,-0.098 -0.097,-0.125 -0.03,-0.015 -0.063,-0.024 -0.097,-0.024" /></g></g></g></g></g></g></g><g
           id="g236"><g
             id="g238" /><g
             id="g266"><g
               style="opacity:0.10000598"
               id="g264"
               clip-path="url(#clipPath242)"><g
                 id="g262"><g
                   id="g260"
                   clip-path="url(#clipPath246)"><g
                     id="g258"><g
                       id="g256"><path
                         id="path254"
                         style="fill:url(#linearGradient252);stroke:none"
                         d="m 490.288,217.3 c 0.929,-0.271 1.824,-0.557 2.702,-0.853 -7.389,11.63 -14.378,23.523 -21.155,35.435 -14.334,25.194 -31.944,49.882 -55.057,67.753 -11.706,9.05 -25.165,16.259 -39.865,18.803 -13.346,2.31 -26.747,0.255 -39.246,-4.748 -12.553,-5.024 -26.134,-14.002 -33.885,-25.381 7.476,-20.794 17.998,-40.972 31.355,-60.1 0.038,-0.053 0.099,-0.085 0.164,-0.085 h 3.571 c 0.414,0 0.779,-0.249 0.931,-0.634 l 4.709,-11.943 c 13.161,-16.796 28.594,-32.672 45.87,-47.188 4.674,-3.927 8.7,-7.039 12.766,-9.83 2.075,-0.221 4.127,-0.797 5.776,-1.26 4.221,-1.184 8.737,-2.346 13.421,-3.455 0.016,-0.004 0.031,-0.006 0.046,-0.006 0.077,0 0.149,0.044 0.182,0.117 0.04,0.086 0.013,0.189 -0.064,0.245 -37.628,27.566 -68.082,64.4 -88.068,106.519 -0.034,0.07 -0.105,0.114 -0.181,0.114 -0.011,0 -0.023,-0.002 -0.035,-0.003 -0.089,-0.017 -0.156,-0.09 -0.164,-0.18 -0.412,-4.706 -0.433,-9.338 -0.06,-13.767 0.045,-0.549 -0.364,-1.033 -0.998,-1.083 -0.515,0 -0.952,0.402 -0.996,0.916 -0.496,5.914 -0.327,12.013 0.503,18.127 0.163,1.202 0.357,2.425 0.575,3.635 2.121,11.772 6.771,23.154 13.447,32.916 0.048,0.07 0.047,0.161 -0.002,0.229 -0.038,0.054 -0.099,0.084 -0.163,0.084 -0.017,0 -0.035,-0.002 -0.053,-0.007 -3.984,-1.1 -7.968,-2.595 -11.843,-4.442 -0.135,-0.065 -0.28,-0.097 -0.428,-0.097 -0.385,0 -0.74,0.224 -0.905,0.569 -0.237,0.498 -0.025,1.096 0.473,1.333 4.99,2.379 10.05,4.159 15.04,5.29 1.138,0.259 2.064,0.449 2.915,0.598 3.235,0.569 6.428,0.858 9.489,0.858 h 0.279 c 10.294,-0.082 19.826,-3.421 26.837,-9.403 8.243,-7.032 12.67,-17.22 16.952,-27.072 0.588,-1.354 1.175,-2.702 1.769,-4.039 6.861,-15.431 14.452,-27.725 23.208,-37.582 10.507,-11.83 22.981,-20.294 36.073,-24.477 4.208,-1.344 8.619,-2.293 12.906,-3.216 3.693,-0.794 7.511,-1.615 11.209,-2.69" /></g></g></g></g></g></g></g><g
           id="g268"><g
             id="g270" /><g
             id="g298"><g
               style="opacity:0.10000598"
               id="g296"
               clip-path="url(#clipPath274)"><g
                 id="g294"><g
                   id="g292"
                   clip-path="url(#clipPath278)"><g
                     id="g290"><g
                       id="g288"><path
                         id="path286"
                         style="fill:url(#linearGradient284);stroke:none"
                         d="m 517.898,172.865 c 2.449,-0.437 4.948,-0.83 7.49,-1.192 -2.541,2.995 -4.986,6.016 -7.335,9.016 -0.005,-2.581 -0.134,-5.138 -0.319,-7.612 -0.008,-0.102 0.063,-0.193 0.164,-0.212" /></g></g></g></g></g></g></g><g
           id="g300"><g
             id="g302" /><g
             id="g330"><g
               style="opacity:0.10000598"
               id="g328"
               clip-path="url(#clipPath306)"><g
                 id="g326"><g
                   id="g324"
                   clip-path="url(#clipPath310)"><g
                     id="g322"><g
                       id="g320"><path
                         id="path318"
                         style="fill:url(#linearGradient316);stroke:none"
                         d="m 738.704,103.009 c -1.066,2.983 -3.945,4.74 -6.993,6.599 -0.906,0.552 -1.843,1.123 -2.726,1.73 -7.729,5.313 -11.998,14.491 -15.429,21.866 l -14.268,30.667 c -3.149,-9.236 -4.978,-18.256 -6.51,-28.023 -1.235,-7.881 -4.208,-14.444 -10.616,-19.449 -17.001,-13.278 -41.577,-10.845 -61.757,-9.967 -20.236,0.879 -40.387,-1.265 -60.618,-0.734 -10.185,0.267 -21.106,1.114 -31.203,4.051 0.861,-3.243 1.59,-6.509 2.152,-9.799 0.046,-0.262 -0.015,-0.526 -0.17,-0.744 -0.153,-0.219 -0.383,-0.364 -0.648,-0.408 -0.056,-0.01 -0.114,-0.015 -0.168,-0.015 -0.489,0 -0.903,0.35 -0.985,0.832 -0.621,3.637 -1.451,7.248 -2.447,10.831 -7.478,2.447 -14.424,6.136 -20.177,11.714 -1.092,1.059 0.577,2.724 1.667,1.668 5.1,-4.945 11.168,-8.367 17.744,-10.733 -2.001,6.562 -4.613,13.007 -7.843,19.265 -0.029,0.054 -0.08,0.092 -0.138,0.105 -0.014,0.002 -0.027,0.003 -0.04,0.003 -0.047,0 -0.092,-0.016 -0.128,-0.046 -8.236,-6.88 -17.288,-13.515 -27.658,-15.457 -0.058,-0.011 -0.108,-0.046 -0.137,-0.098 -0.029,-0.051 -0.034,-0.112 -0.014,-0.167 4.986,-13.646 14.138,-25.834 25.773,-34.318 0.034,-0.026 0.076,-0.04 0.118,-0.04 h 49.516 c 0.551,0 1,-0.448 1,-1 V 70.257 c 0,-0.104 0.078,-0.19 0.181,-0.2 15.987,-1.522 32.221,-2.294 48.25,-2.294 19.362,0 38.909,1.123 58.102,3.338 20.515,2.369 41.85,6.244 58.897,18.457 2.256,1.617 9.447,7.365 7.273,13.451" /></g></g></g></g></g></g></g><g
           id="g332"><g
             id="g334" /><g
             id="g362"><g
               style="opacity:0.10000598"
               id="g360"
               clip-path="url(#clipPath338)"><g
                 id="g358"><g
                   id="g356"
                   clip-path="url(#clipPath342)"><g
                     id="g354"><g
                       id="g352"><path
                         id="path350"
                         style="fill:url(#linearGradient348);stroke:none"
                         d="m 415.17,133.413 c -0.072,10e-4 -0.138,0.041 -0.173,0.104 -0.035,0.064 -0.033,0.141 0.006,0.201 1.723,2.761 3.147,5.677 4.232,8.669 0.029,0.08 0.105,0.132 0.188,0.132 0.009,0 3.839,-0.522 3.839,-0.522 0.054,-0.008 0.102,-0.036 0.134,-0.08 0.032,-0.044 0.045,-0.099 0.036,-0.153 l -1.39,-8.006 c -0.016,-0.091 -0.092,-0.16 -0.185,-0.166 -1.893,-0.125 -3.786,-0.188 -5.626,-0.188 -0.294,0 -1.061,0.009 -1.061,0.009" /></g></g></g></g></g></g></g><g
           id="g364"><g
             id="g366" /><g
             id="g394"><g
               style="opacity:0.10000598"
               id="g392"
               clip-path="url(#clipPath370)"><g
                 id="g390"><g
                   id="g388"
                   clip-path="url(#clipPath374)"><g
                     id="g386"><g
                       id="g384"><path
                         id="path382"
                         style="fill:url(#linearGradient380);stroke:none"
                         d="M 372.996,157.675 C 368.7,155.706 364.37,153.812 360.009,152 304.131,128.791 244.598,117.851 185.54,106.223 158.283,100.856 131.064,95.041 103.368,92.399 100.041,92.082 96.644,91.786 93.203,91.539 l 6.3,-16.006 c 0.03,-0.076 0.104,-0.127 0.186,-0.127 h 305.399 c 0.066,0 0.128,0.033 0.165,0.088 0.038,0.055 0.045,0.124 0.021,0.185 l -20.649,52.466 z" /></g></g></g></g></g></g></g></g></g><g
       id="g396"><g
         clip-path="url(#clipPath402)"
         id="g398"><g
           id="g404"><g
             id="g406" /><g
             id="g434"><g
               id="g432"
               clip-path="url(#clipPath410)"><g
                 id="g430"><g
                   id="g428"
                   clip-path="url(#clipPath414)"><g
                     id="g426"><g
                       id="g424"><path
                         id="path422"
                         style="fill:url(#radialGradient420);stroke:none"
                         d="m 475.836,165.585 c -15.963,1.161 -31.941,3.466 -47.488,6.853 -40.712,28.529 -73.108,67.466 -93.756,112.634 -0.015,0.034 -0.021,0.073 -0.015,0.111 1.944,13.533 7.196,26.429 15.19,37.295 0.029,0.04 0.072,0.067 0.12,0.077 3.816,0.813 7.525,1.225 11.024,1.225 l 0.407,-10e-4 c 9.826,-0.078 18.901,-3.248 25.556,-8.924 7.889,-6.731 12.227,-16.711 16.421,-26.362 0.588,-1.355 1.175,-2.704 1.77,-4.04 6.945,-15.623 14.646,-28.086 23.539,-38.098 10.746,-12.098 23.526,-20.762 36.96,-25.054 4.3,-1.374 8.77,-2.335 13.092,-3.265 3.656,-0.786 7.435,-1.599 11.073,-2.657 9.492,-2.761 16.14,-6.81 20.322,-12.38 6.327,-8.427 6.486,-19.158 5.715,-29.499 -0.004,-0.058 -0.032,-0.11 -0.078,-0.145 -0.035,-0.026 -0.077,-0.041 -0.121,-0.041 -0.013,0 -0.025,0.001 -0.038,0.004 -2.555,0.493 -4.612,0.936 -6.476,1.393 l -1.06,0.261 c -4.417,1.092 -9.423,2.329 -14.175,2.329 -3.524,0 -6.536,-0.661 -9.208,-2.022 -3.7,-1.885 -6.745,-5.284 -8.575,-9.573 -0.032,-0.074 -0.104,-0.122 -0.184,-0.122 -0.005,0 -0.01,0 -0.015,0.001" /></g></g></g></g></g></g></g></g></g><g
       id="g436"><g
         clip-path="url(#clipPath442)"
         id="g438"><g
           id="g444"><g
             id="g446" /><g
             id="g458"><g
               style="opacity:0.14999402"
               id="g456"
               clip-path="url(#clipPath450)"><g
                 id="g454"
                 transform="translate(426.4048,82.3425)"><path
                   id="path452"
                   style="fill:#414042;fill-opacity:1;fill-rule:nonzero;stroke:none"
                   d="m 0,0 c -8.604,1.84 -16.956,4.679 -24.869,8.441 -0.046,0.022 -0.082,0.061 -0.1,0.108 l -15.118,38.413 c -0.03,0.076 -0.011,0.163 0.048,0.219 1.678,1.582 2.905,3.567 3.884,5.3 0.029,0.049 0.076,0.084 0.131,0.097 0.015,0.003 0.029,0.005 0.044,0.005 0.041,0 0.082,-0.013 0.116,-0.037 1.729,-1.233 3.638,-2.187 5.677,-2.834 0.1,-0.031 0.159,-0.137 0.133,-0.239 -0.529,-2.119 -0.873,-4.347 0.177,-6.285 0.99,-1.829 3.041,-2.92 5.485,-2.92 0.701,0 1.378,0.092 2.014,0.277 2.652,0.767 4.65,2.7 6.256,4.49 1.062,1.188 2.097,2.492 3.16,3.989 0.038,0.053 0.099,0.084 0.163,0.084 h 0.006 c 0.876,-0.027 1.749,-0.049 2.624,-0.049 1.61,0 3.304,0.054 5.176,0.168 0.004,0.001 0.008,0.001 0.012,0.001 0.056,0 0.111,-0.025 0.149,-0.067 0.04,-0.046 0.059,-0.107 0.048,-0.168 l -1.082,-6.227 c -0.239,-1.381 -0.536,-3.099 0.143,-4.697 0.5,-1.175 1.496,-2.099 2.804,-2.601 0.726,-0.279 1.502,-0.419 2.31,-0.419 0.959,0 1.907,0.206 2.741,0.596 2.77,1.293 4.383,4.084 5.353,6.069 1.695,3.468 2.817,7.209 3.336,11.118 0.014,0.1 0.099,0.174 0.199,0.174 0.003,0 7.012,-0.42 7.012,-0.42 0.088,-0.005 0.161,-0.066 0.183,-0.151 0.02,-0.085 -0.016,-0.174 -0.091,-0.219 -0.649,-0.395 -1.256,-0.763 -1.867,-1.119 -0.691,-0.401 -1.381,-0.8 -2.079,-1.186 -0.121,-0.814 -0.232,-1.631 -0.336,-2.449 -0.654,-5.149 -0.989,-10.277 -0.996,-15.246 -0.004,-2.721 0.298,-5.732 2.564,-7.438 0.901,-0.677 2.007,-1.036 3.199,-1.036 1.52,0 3.091,0.564 4.312,1.546 1.649,1.33 2.855,3.382 3.688,6.274 0.712,2.474 1.065,5.087 1.049,7.77 0,0.082 0.05,0.156 0.126,0.187 2.691,1.07 5.373,2.195 7.974,3.345 0.026,0.012 0.054,0.018 0.081,0.018 0.051,0 0.1,-0.02 0.139,-0.057 5.786,-5.579 13.673,-8.778 21.641,-8.778 0.505,0 1.01,0.014 1.516,0.039 0.604,0.031 1.203,0.098 1.802,0.166 0.006,10e-4 0.014,0.002 0.022,0.002 0.084,0 0.159,-0.053 0.188,-0.133 C 65.921,20.792 74.25,9.116 85.235,0.356 85.302,0.304 85.327,0.215 85.299,0.134 85.271,0.054 85.195,0 85.11,0 Z" /></g></g></g></g><g
           id="g460"><g
             id="g462" /><g
             id="g474"><g
               style="opacity:0.14999402"
               id="g472"
               clip-path="url(#clipPath466)"><g
                 id="g470"
                 transform="translate(403.607,159.6892)"><path
                   id="path468"
                   style="fill:#414042;fill-opacity:1;fill-rule:nonzero;stroke:none"
                   d="M 0,0 C 0.194,0.744 0.406,1.468 0.694,2.137 0.646,2.139 0.599,2.145 0.551,2.146 -3.622,2.209 -7.33,-0.761 -10.264,-3.42 c -4.72,-4.279 -9.363,-10.024 -11.212,-16.329 l 3.224,-8.19 c 0.025,-0.065 0.083,-0.112 0.151,-0.124 0.012,-0.002 0.023,-0.003 0.035,-0.003 0.056,0 0.111,0.024 0.149,0.066 1.24,1.385 2.219,3.029 3.093,4.601 l 0.998,1.795 c 3.803,6.832 8.253,13.349 13.264,19.449 z" /></g></g></g></g><g
           id="g476"><g
             id="g478" /><g
             id="g490"><g
               style="opacity:0.14999402"
               id="g488"
               clip-path="url(#clipPath482)"><g
                 id="g486"
                 transform="translate(423.8433,144.1306)"><path
                   id="path484"
                   style="fill:#414042;fill-opacity:1;fill-rule:nonzero;stroke:none"
                   d="m 0,0 0.602,3.465 c -3.662,2.557 -7.23,5.258 -10.393,8.376 -2.292,2.258 -4.604,4.686 -7.677,5.543 -0.188,-0.335 -0.358,-0.734 -0.519,-1.238 -0.111,-0.346 -0.214,-0.709 -0.314,-1.091 l -7.211,-27.685 c -0.446,-1.757 -0.817,-3.591 -0.045,-5.016 0.749,-1.385 2.41,-1.879 3.715,-1.879 0.503,0 1.011,0.071 1.47,0.204 2.168,0.626 3.906,2.324 5.319,3.902 0.742,0.826 1.481,1.733 2.308,2.833 0.009,0.01 0.017,0.02 0.025,0.031 0.474,0.627 0.941,1.26 1.379,1.91 1.93,2.867 3.531,6.006 4.76,9.332 0.236,0.637 0.458,1.28 0.664,1.928 0.542,1.704 0.949,3.259 1.244,4.751 0.092,0.468 0.502,0.807 0.975,0.807 0.067,0 0.135,-0.008 0.201,-0.021 0.54,-0.107 0.893,-0.634 0.785,-1.174 -0.267,-1.35 -0.639,-2.793 -1.133,-4.414 -0.016,-0.056 -0.009,-0.117 0.024,-0.166 0.031,-0.049 0.083,-0.083 0.14,-0.09 0,0 3.475,-0.474 3.484,-0.474 0.095,0 0.18,0.069 0.197,0.166" /></g></g></g></g><g
           id="g492"><g
             id="g494" /><g
             id="g506"><g
               style="opacity:0.14999402"
               id="g504"
               clip-path="url(#clipPath498)"><g
                 id="g502"
                 transform="translate(430.4664,143.4961)"><path
                   id="path500"
                   style="fill:#414042;fill-opacity:1;fill-rule:nonzero;stroke:none"
                   d="m 0,0 c -1.398,0.944 -2.807,1.887 -4.209,2.845 l -3.747,-21.569 c -0.248,-1.429 -0.404,-2.6 0.013,-3.578 0.366,-0.861 1.114,-1.3 1.678,-1.516 0.488,-0.187 1.038,-0.286 1.593,-0.286 0.67,0 1.325,0.141 1.896,0.406 2.198,1.027 3.565,3.423 4.403,5.137 1.611,3.296 2.675,6.843 3.162,10.543 0.087,0.661 0.157,1.325 0.196,1.99 0,0 2.347,-0.14 5.002,-0.298 C 6.588,-4.329 3.263,-2.203 0,0" /></g></g></g></g><g
           id="g508"><g
             id="g510" /><g
             id="g522"><g
               style="opacity:0.14999402"
               id="g520"
               clip-path="url(#clipPath514)"><g
                 id="g518"
                 transform="translate(516.5455,134.5251)"><path
                   id="path516"
                   style="fill:#414042;fill-opacity:1;fill-rule:nonzero;stroke:none"
                   d="m 0,0 c -4.37,8.047 -9.595,15.452 -15.576,22.109 0.693,-1.536 1.291,-3.106 1.763,-4.711 2.857,-9.706 -0.528,-18.932 -9.711,-23.576 -9.345,-4.727 -19.71,-4.242 -29.491,-1.494 0.232,-0.228 0.474,-0.46 0.739,-0.704 5.358,-4.933 12.539,-7.763 19.701,-7.763 0.488,0 0.976,0.014 1.464,0.04 0.333,0.018 0.66,0.05 1.038,0.088 l 0.344,0.034 c 0.666,0.065 1.345,0.154 2.02,0.264 9.429,1.54 17.575,7.059 27.661,15.464 C 0.025,-0.188 0.046,-0.084 0,0" /></g></g></g></g><g
           id="g524"><g
             id="g526" /><g
             id="g538"><g
               style="opacity:0.14999402"
               id="g536"
               clip-path="url(#clipPath530)"><g
                 id="g534"
                 transform="translate(452.3171,130.9831)"><path
                   id="path532"
                   style="fill:#414042;fill-opacity:1;fill-rule:nonzero;stroke:none"
                   d="M 0,0 C -1.854,0.833 -3.682,1.723 -5.487,2.656 -6.913,1.762 -8.352,0.888 -9.8,0.069 c -0.054,-0.03 -0.091,-0.085 -0.1,-0.146 -0.766,-5.515 -1.159,-11.016 -1.167,-16.351 -0.003,-2.226 0.204,-4.661 1.768,-5.837 0.556,-0.419 1.23,-0.631 2.002,-0.631 1.053,0 2.192,0.412 3.051,1.101 1.318,1.064 2.306,2.788 3.021,5.271 0.597,2.068 0.921,4.276 0.965,6.563 0.014,0.772 0,1.472 -0.042,2.142 0.418,0.163 0.835,0.332 1.251,0.501 l 0.692,0.28 c 2.255,0.902 4.56,1.869 6.849,2.874 l 0.63,0.274 c 0.171,0.075 0.341,0.151 0.511,0.226 C 6.322,-2.647 3.09,-1.388 0,0" /></g></g></g></g><g
           id="g540"><g
             id="g542" /><g
             id="g554"><g
               style="opacity:0.14999402"
               id="g552"
               clip-path="url(#clipPath546)"><g
                 id="g550"
                 transform="translate(104.9268,63.614)"><path
                   id="path548"
                   style="fill:#414042;fill-opacity:1;fill-rule:nonzero;stroke:none"
                   d="m 0,0 c -0.11,0 -0.2,0.09 -0.2,0.2 v 9.392 c 0,0.11 0.09,0.2 0.2,0.2 h 301.923 c 0.331,0 0.64,0.163 0.827,0.437 0.186,0.274 0.225,0.621 0.103,0.929 l -2.084,5.297 c -0.025,0.062 -0.017,0.131 0.02,0.186 0.038,0.054 0.099,0.088 0.166,0.088 h 108.81 c 0.043,0 0.086,-0.015 0.12,-0.042 0.103,-0.076 0.366,-0.273 0.441,-0.324 0.171,-0.121 0.369,-0.183 0.575,-0.183 0.326,0 0.632,0.158 0.817,0.424 0.036,0.061 0.112,0.125 0.183,0.125 h 46.973 c 0.11,0 0.2,-0.09 0.2,-0.201 V 0.2 c 0,-0.11 -0.09,-0.2 -0.2,-0.2 z" /></g></g></g></g><g
           id="g556"><g
             id="g558" /><g
             id="g570"><g
               style="opacity:0.14999402"
               id="g568"
               clip-path="url(#clipPath562)"><g
                 id="g566"
                 transform="translate(396.7564,133.989)"><path
                   id="path564"
                   style="fill:#414042;fill-opacity:1;fill-rule:nonzero;stroke:none"
                   d="m 0,0 c -0.021,0 -0.042,0.004 -0.062,0.01 -1.884,0.612 -3.638,1.511 -5.213,2.674 -0.081,0.059 -0.105,0.17 -0.056,0.257 2.811,5.068 6.094,10.107 9.757,14.98 0.039,0.052 0.099,0.08 0.16,0.08 0.029,0 0.059,-0.007 0.087,-0.021 0.086,-0.041 0.131,-0.137 0.106,-0.23 L 0.193,0.149 C 0.18,0.097 0.145,0.051 0.096,0.024 0.066,0.009 0.033,0 0,0" /></g></g></g></g><g
           id="g572"><g
             id="g574" /><g
             id="g586"><g
               style="opacity:0.14999402"
               id="g584"
               clip-path="url(#clipPath578)"><g
                 id="g582"
                 transform="translate(334.441,280.6887)"><path
                   id="path580"
                   style="fill:#414042;fill-opacity:1;fill-rule:nonzero;stroke:none"
                   d="m 0,0 c -0.034,0.07 -0.104,0.114 -0.181,0.114 -0.011,0 -0.023,-0.001 -0.035,-0.003 -0.089,-0.016 -0.156,-0.09 -0.164,-0.179 -0.412,-4.706 -0.432,-9.338 -0.06,-13.767 0.045,-0.55 -0.364,-1.034 -0.998,-1.084 -0.515,0 -0.952,0.402 -0.996,0.917 -0.496,5.914 -0.327,12.012 0.503,18.126 0.163,1.202 0.357,2.425 0.575,3.636 2.121,11.772 6.771,23.154 13.447,32.916 0.048,0.069 0.047,0.16 -0.002,0.229 -0.038,0.053 -0.099,0.084 -0.163,0.084 -0.017,0 -0.035,-0.003 -0.053,-0.008 -3.984,-1.1 -7.968,-2.595 -11.843,-4.442 -0.135,-0.064 -0.28,-0.097 -0.428,-0.097 -0.385,0 -0.74,0.224 -0.905,0.57 -0.237,0.498 -0.025,1.095 0.473,1.333 1.293,0.616 2.591,1.19 3.892,1.726 -2.148,-0.298 -4.28,-0.633 -6.377,-0.996 -6.051,-1.049 -12.433,-2.723 -16.632,-7.525 -3.669,-4.195 -5.261,-10.025 -6.101,-15.74 6.986,-16.63 15.931,-32.805 26.744,-48.289 0.038,-0.054 0.099,-0.086 0.164,-0.086 h 3.571 c 0.414,0 0.779,-0.248 0.931,-0.634 l 4.709,-11.943 c 13.161,-16.796 28.594,-32.672 45.87,-47.188 4.674,-3.926 8.7,-7.039 12.766,-9.83 2.075,-0.22 4.127,-0.797 5.776,-1.259 4.221,-1.185 8.737,-2.347 13.421,-3.456 0.016,-0.003 0.031,-0.005 0.046,-0.005 0.077,0 0.149,0.044 0.182,0.116 0.04,0.087 0.014,0.189 -0.064,0.245 C 50.44,-78.953 19.986,-42.119 0,0" /></g></g></g></g><g
           id="g588"><g
             id="g590" /><g
             id="g602"><g
               style="opacity:0.14999402"
               id="g600"
               clip-path="url(#clipPath594)"><g
                 id="g598"
                 transform="translate(490.2877,217.2995)"><path
                   id="path596"
                   style="fill:#414042;fill-opacity:1;fill-rule:nonzero;stroke:none"
                   d="m 0,0 c 9.924,-2.887 16.912,-7.172 21.363,-13.1 6.737,-8.974 6.856,-20.769 6.083,-31.123 -0.008,-0.101 0.064,-0.193 0.164,-0.212 9.419,-1.681 19.536,-2.718 30.246,-3.816 14.025,-1.437 29.919,-3.064 46.557,-6.468 0.014,-0.002 0.026,-0.004 0.04,-0.004 0.058,0 0.113,0.026 0.152,0.071 0.047,0.055 0.061,0.131 0.036,0.2 -3.11,8.283 -4.745,17.198 -4.727,25.781 0.001,0.55 0.449,0.998 0.999,0.998 0.27,-0.001 0.522,-0.105 0.709,-0.295 0.189,-0.188 0.292,-0.439 0.292,-0.707 -0.018,-8.888 1.762,-18.056 5.147,-26.511 0.024,-0.061 0.078,-0.107 0.143,-0.121 2.221,-0.479 4.255,-0.943 6.22,-1.418 0.015,-0.004 0.031,-0.005 0.047,-0.005 0.027,0 0.054,0.005 0.08,0.016 9.421,4.118 19.19,7.4 29.105,9.791 3.884,3.907 8.115,7.495 10.879,12.309 -7.006,4.25 -16.516,1.717 -24.291,2.745 -7.185,0.95 -14.019,5.477 -18.971,10.65 -5.279,5.514 -5.682,12.43 -9.32,18.769 C 96.336,5.594 85.189,0.757 78.919,-2.344 73.683,-4.934 68.564,-8.005 63.697,-11.238 57.574,-15.304 52.62,-21.736 45.621,-24.41 33.352,-29.097 22.661,-13.747 16.209,-5.658 11.482,0.269 6.602,6.306 0.105,10.387 c -7.059,4.435 -13.774,8.916 -20.048,14.442 -12.741,11.224 -23.515,24.454 -36.088,35.856 -11.8,10.701 -24.539,20.926 -38.21,29.305 3.676,-5.561 6.405,-11.838 9.076,-17.986 0.589,-1.353 1.175,-2.702 1.769,-4.038 6.862,-15.432 14.453,-27.725 23.208,-37.583 C -49.681,18.554 -37.207,10.09 -24.114,5.907 -19.906,4.562 -15.496,3.613 -11.209,2.69 -7.516,1.896 -3.697,1.075 0,0" /></g></g></g></g><g
           id="g604"><g
             id="g606" /><g
             id="g618"><g
               style="opacity:0.14999402"
               id="g616"
               clip-path="url(#clipPath610)"><g
                 id="g614"
                 transform="translate(738.7037,103.0085)"><path
                   id="path612"
                   style="fill:#414042;fill-opacity:1;fill-rule:nonzero;stroke:none"
                   d="m 0,0 c -1.065,2.983 -3.944,4.74 -6.992,6.6 -0.906,0.551 -1.844,1.123 -2.727,1.729 -7.728,5.314 -11.998,14.491 -15.428,21.866 L -52.51,89.004 c 0.845,-10.794 2.05,-21.561 3.402,-32.306 1.155,-9.181 2.127,-18.461 3.747,-27.572 1.241,-6.976 4.715,-12.409 6.906,-18.982 5.843,-17.536 -23.831,-16.018 -33.816,-15.87 -12.52,0.185 -24.901,-0.142 -37.411,0.967 -8.18,0.726 -16.383,2.002 -24.609,1.802 -7.568,-0.184 -15.091,-1.267 -22.666,-1.279 -5.487,-0.009 -11.21,0.204 -16.083,2.98 -3.952,2.252 -7.196,5.631 -10.104,9.074 -6.502,7.699 -11.765,16.105 -19.212,22.983 -7.238,6.686 -14.323,13.548 -22.186,19.514 -4.608,3.497 -10.587,8.023 -16.806,9.989 0.215,-0.211 0.434,-0.416 0.648,-0.628 7.938,-7.886 14.735,-16.962 20.2,-26.977 0.327,-0.598 0.646,-1.201 0.963,-1.805 5.682,-10.85 9.574,-22.274 11.569,-33.953 0.046,-0.261 -0.014,-0.526 -0.17,-0.744 -0.153,-0.218 -0.383,-0.363 -0.648,-0.408 -0.056,-0.01 -0.113,-0.015 -0.168,-0.015 -0.488,0 -0.902,0.35 -0.984,0.832 -1.918,11.23 -5.638,22.248 -11.057,32.746 -0.028,0.053 -0.079,0.091 -0.138,0.104 -0.013,0.003 -0.027,0.004 -0.04,0.004 -0.047,0 -0.092,-0.017 -0.128,-0.047 -8.236,-6.88 -17.288,-13.515 -27.658,-15.457 -0.058,-0.011 -0.107,-0.046 -0.137,-0.098 -0.029,-0.05 -0.034,-0.112 -0.013,-0.167 4.985,-13.645 14.137,-25.834 25.772,-34.318 0.034,-0.025 0.076,-0.039 0.118,-0.039 h 49.516 c 0.552,0 1,-0.448 1,-1 v -11.086 c 0,-0.103 0.078,-0.189 0.182,-0.199 15.986,-1.523 32.22,-2.294 48.25,-2.294 19.361,0 38.909,1.123 58.101,3.338 20.516,2.369 41.851,6.244 58.898,18.457 C -5.017,-11.834 2.175,-6.086 0,0" /></g></g></g></g><g
           id="g620"><g
             id="g622" /><g
             id="g634"><g
               style="opacity:0.14999402"
               id="g632"
               clip-path="url(#clipPath626)"><g
                 id="g630"
                 transform="translate(630.4064,167.6822)"><path
                   id="path628"
                   style="fill:#414042;fill-opacity:1;fill-rule:nonzero;stroke:none"
                   d="m 0,0 c -7.774,-2.023 -15.445,-4.6 -22.889,-7.693 -0.079,-0.033 -0.128,-0.113 -0.122,-0.198 0.006,-0.086 0.065,-0.159 0.149,-0.18 5.54,-1.435 10.95,-3.061 16.251,-4.868 5.025,2.302 10.716,3.477 14.821,7.198 -3.162,0.622 -6.433,0.459 -9.541,1.502 -0.651,0.218 -1.183,1.08 -0.704,1.732 0.639,0.87 1.324,1.7 2.035,2.507" /></g></g></g></g><g
           id="g636"><g
             id="g638" /><g
             id="g650"><g
               style="opacity:0.14999402"
               id="g648"
               clip-path="url(#clipPath642)"><g
                 id="g646"
                 transform="translate(415.1705,133.4128)"><path
                   id="path644"
                   style="fill:#414042;fill-opacity:1;fill-rule:nonzero;stroke:none"
                   d="m 0,0 c -0.072,0.001 -0.139,0.041 -0.174,0.104 -0.034,0.064 -0.032,0.141 0.006,0.202 1.724,2.76 3.147,5.676 4.232,8.669 0.03,0.08 0.106,0.131 0.189,0.131 0.009,0 3.839,-0.522 3.839,-0.522 C 8.146,8.576 8.193,8.548 8.226,8.504 8.258,8.46 8.271,8.405 8.262,8.352 L 6.871,0.345 C 6.855,0.254 6.779,0.186 6.687,0.18 4.794,0.055 2.9,-0.009 1.061,-0.009 0.767,-0.009 0,0 0,0" /></g></g></g></g><g
           id="g652"><g
             id="g654" /><g
             id="g666"><g
               style="opacity:0.14999402"
               id="g664"
               clip-path="url(#clipPath658)"><g
                 id="g662"
                 transform="translate(392.4662,92.9977)"><path
                   id="path660"
                   style="fill:#414042;fill-opacity:1;fill-rule:nonzero;stroke:none"
                   d="m 0,0 c -8.91,-1.302 -17.991,-1.465 -26.981,-1.477 -7.661,-0.011 -15.318,0.215 -22.977,0.365 -9.631,0.188 -19.23,-0.787 -28.841,-1.332 -30.252,-1.716 -60.539,-2.784 -90.835,-3.293 -30.281,-0.509 -60.574,-0.536 -90.858,-0.886 -12.227,-0.142 -24.54,-0.434 -36.775,0.091 l 4.303,-10.933 c 0.031,-0.076 0.104,-0.127 0.186,-0.127 h 305.4 c 0.066,0 0.128,0.033 0.165,0.088 0.037,0.055 0.045,0.124 0.021,0.186 L 5.615,0.956 C 3.665,0.524 1.712,0.25 0,0" /></g></g></g></g></g></g><g
       id="g668"><g
         clip-path="url(#clipPath674)"
         id="g670"><g
           id="g676"><g
             id="g678" /><g
             id="g690"><g
               style="opacity:0.35000604"
               id="g688"
               clip-path="url(#clipPath682)"><g
                 id="g686"
                 transform="translate(542.3986,134.2984)"><path
                   id="path684"
                   style="fill:#ffffff;fill-opacity:1;fill-rule:nonzero;stroke:none"
                   d="M 0,0 C 7.498,3.492 17.935,4.123 24.223,4.322 36.128,4.698 49.124,4.212 61.399,1.959 36.258,12.609 9.974,22.536 -17.237,24.353 -9.822,17.485 -4.722,8.856 0,0" /></g></g></g></g><g
           id="g692"><g
             id="g694" /><g
             id="g706"><g
               style="opacity:0.35000604"
               id="g704"
               clip-path="url(#clipPath698)"><g
                 id="g702"
                 transform="translate(645.0364,235.0304)"><path
                   id="path700"
                   style="fill:#ffffff;fill-opacity:1;fill-rule:nonzero;stroke:none"
                   d="M 0,0 C -7.87,2.568 -17.736,-0.575 -25.491,-2.568 -27.38,-3.053 -29.346,-3.585 -31.323,-4.191 -13.857,-3.458 3.641,-9.79 18.576,-19.976 13.929,-12.537 8.501,-2.774 0,0" /></g></g></g></g><g
           id="g708"><g
             id="g710" /><g
             id="g722"><g
               style="opacity:0.35000604"
               id="g720"
               clip-path="url(#clipPath714)"><g
                 id="g718"
                 transform="translate(518.815,392.8626)"><path
                   id="path716"
                   style="fill:#ffffff;fill-opacity:1;fill-rule:nonzero;stroke:none"
                   d="M 0,0 C -12.252,12.071 -30.212,14.303 -46.642,13.229 -62.871,12.167 -78.481,7.786 -93.757,2.446 c -5.077,-1.775 -11.201,-3.778 -16.871,-6.535 2.143,0.352 4.213,0.62 6.066,0.864 26.542,3.484 52.804,2.991 78.783,-3.754 13.568,-3.523 25.925,-9.128 37.658,-16.793 3.008,-1.965 5.965,-4.001 8.901,-6.068 -2.523,3.644 -5.204,7.192 -7.688,10.862 C 8.743,-12.552 5.605,-5.522 0,0" /></g></g></g></g><g
           id="g724"><g
             id="g726" /><g
             id="g738"><g
               style="opacity:0.35000604"
               id="g736"
               clip-path="url(#clipPath730)"><g
                 id="g734"
                 transform="translate(311.3097,307.8238)"><path
                   id="path732"
                   style="fill:#ffffff;fill-opacity:1;fill-rule:nonzero;stroke:none"
                   d="m 0,0 c 2.251,10.534 6.488,21.102 14.698,28.4 7.955,7.072 18.339,10.87 28.672,12.805 9.881,1.85 20.118,2.2 30.139,1.292 -11.151,7.752 -23.778,15.027 -37.3,15.922 -0.869,0.057 -1.668,0.089 -2.443,0.094 l -0.318,0.002 c -1.568,0 -3.123,-0.089 -4.62,-0.263 C 13.703,56.488 -0.569,44.719 -6.688,28.966 -9.035,22.922 -10.318,16.316 -10.493,9.267 -8.042,1.503 -5.161,-6.184 -1.876,-13.774 -1.612,-9.104 -0.955,-4.466 0,0" /></g></g></g></g><g
           id="g740"><g
             id="g742" /><g
             id="g754"><g
               style="opacity:0.35000604"
               id="g752"
               clip-path="url(#clipPath746)"><g
                 id="g750"
                 transform="translate(107.8117,231.0734)"><path
                   id="path748"
                   style="fill:#ffffff;fill-opacity:1;fill-rule:nonzero;stroke:none"
                   d="M 0,0 C 4.966,2.073 10.048,3.806 15.211,5.265 15.092,5.26 14.973,5.253 14.854,5.249 -7.355,4.367 -29.492,2.297 -51.697,1.491 c 1.593,-3.227 3.173,-6.459 4.714,-9.711 4.642,-9.797 9.011,-19.738 13.352,-29.689 C -28.698,-21.253 -15.457,-6.452 0,0" /></g></g></g></g></g></g><g
       id="g756"><g
         clip-path="url(#clipPath762)"
         id="g758"><g
           transform="translate(731.315,89.7204)"
           id="g764"><path
             id="path766"
             style="fill:#000000;fill-opacity:1;fill-rule:nonzero;stroke:none"
             d="m 0,0 c -17.009,-12.185 -38.314,-16.055 -58.805,-18.421 -19.178,-2.213 -38.718,-3.336 -58.078,-3.336 -16.034,0 -32.26,0.773 -48.231,2.294 v 11.085 c 0,0.662 -0.538,1.2 -1.2,1.2 h -49.517 c -11.613,8.47 -20.73,20.616 -25.702,34.226 10.358,1.939 19.456,8.573 27.749,15.5 5.404,-10.468 9.12,-21.463 11.037,-32.687 0.099,-0.579 0.596,-0.999 1.182,-0.999 0.066,0 0.134,0.006 0.202,0.018 0.317,0.054 0.593,0.227 0.778,0.49 0.186,0.261 0.258,0.579 0.203,0.894 -1.999,11.7 -5.898,23.142 -11.59,34.01 -0.316,0.606 -0.636,1.209 -0.964,1.809 -5.473,10.03 -12.281,19.122 -20.235,27.022 -0.694,0.69 -1.395,1.372 -2.106,2.042 -0.001,10e-4 -0.002,10e-4 -0.002,10e-4 -1.38,1.301 -2.759,2.54 -4.1,3.682 -0.217,0.186 -0.493,0.287 -0.778,0.287 -0.353,0 -0.686,-0.153 -0.913,-0.422 -0.208,-0.244 -0.309,-0.554 -0.284,-0.875 0.026,-0.319 0.175,-0.609 0.418,-0.816 0.649,-0.552 1.28,-1.125 1.911,-1.697 l 0.044,-0.04 c -4.698,0.111 -9.37,0.316 -13.903,0.609 1.669,3.468 4.204,6.208 7.178,7.723 2.377,1.211 5.063,1.798 8.215,1.798 4.408,0 9.101,-1.159 13.641,-2.281 l 1.064,-0.262 c 2.022,-0.497 4.254,-0.974 7.021,-1.501 l 0.69,-0.135 c 0.426,-0.084 0.85,-0.168 1.283,-0.245 9.445,-1.687 19.622,-2.729 30.396,-3.833 14.44,-1.48 30.807,-3.157 47.982,-6.784 l 0.739,-0.156 c 0.55,-0.115 1.1,-0.23 1.653,-0.352 0.841,-0.187 1.689,-0.385 2.536,-0.582 l 0.331,-0.078 c 0,0 0.001,0 0.002,0 0.908,-0.212 1.818,-0.43 2.732,-0.654 29.052,-7.119 54.659,-19.207 78.286,-36.954 0.21,-0.157 0.458,-0.24 0.72,-0.24 0.376,0 0.735,0.18 0.961,0.479 0.396,0.53 0.289,1.284 -0.239,1.681 -23.101,17.351 -47.978,29.318 -76.028,36.584 9.847,4.092 20.108,7.288 30.513,9.49 0.647,0.137 1.063,0.775 0.926,1.422 -0.116,0.552 -0.611,0.952 -1.175,0.952 -0.082,0 -0.166,-0.009 -0.247,-0.026 -11.55,-2.444 -22.939,-6.103 -33.853,-10.873 -2.002,0.483 -4.04,0.948 -6.225,1.419 -3.373,8.428 -5.149,17.566 -5.131,26.436 0,0.321 -0.124,0.622 -0.351,0.849 -0.225,0.227 -0.527,0.352 -0.849,0.353 -0.66,0 -1.199,-0.537 -1.2,-1.198 -0.018,-8.629 1.625,-17.558 4.739,-25.852 -16.613,3.398 -32.526,5.032 -46.576,6.471 -10.712,1.098 -20.833,2.136 -30.232,3.815 0.778,10.421 0.636,22.254 -6.122,31.258 -4.478,5.963 -11.501,10.272 -21.468,13.171 -3.702,1.077 -7.515,1.897 -11.222,2.694 -4.267,0.918 -8.68,1.867 -12.887,3.211 -13.058,4.173 -25.501,12.616 -35.984,24.419 -8.742,9.842 -16.323,22.118 -23.176,37.531 -0.593,1.336 -1.179,2.684 -1.767,4.037 -4.291,9.874 -8.728,20.083 -17.006,27.145 -7.047,6.012 -16.623,9.368 -26.966,9.45 l -0.28,10e-4 c -3.072,0 -6.276,-0.29 -9.524,-0.862 -0.855,-0.149 -1.784,-0.34 -2.924,-0.599 -5.004,-1.135 -10.079,-2.92 -15.082,-5.304 -0.597,-0.285 -0.852,-1.003 -0.567,-1.6 0.197,-0.415 0.624,-0.684 1.085,-0.684 0.179,0 0.352,0.04 0.514,0.117 3.903,1.86 7.873,3.342 11.81,4.43 -6.69,-9.783 -11.35,-21.176 -13.479,-32.993 -0.219,-1.214 -0.412,-2.44 -0.576,-3.645 -0.832,-6.128 -1.002,-12.242 -0.504,-18.17 0.052,-0.616 0.577,-1.1 1.195,-1.1 0.005,0 0.096,0.004 0.101,0.005 0.659,0.055 1.151,0.636 1.096,1.295 -0.376,4.472 -0.346,9.089 0.06,13.733 20.008,-42.163 50.432,-78.976 88.132,-106.594 -4.631,1.096 -9.142,2.255 -13.414,3.453 -1.666,0.468 -3.737,1.046 -5.809,1.267 -3.972,2.756 -7.995,5.866 -12.658,9.784 -17.267,14.507 -32.689,30.373 -45.841,47.158 l -4.681,11.893 c -0.182,0.462 -0.621,0.761 -1.117,0.761 h -3.571 c -15.217,21.791 -26.755,44.947 -34.294,68.827 0.183,6.959 1.462,13.542 3.802,19.567 6.092,15.686 20.299,27.403 35.351,29.158 1.492,0.174 3.038,0.262 4.597,0.262 0,0 0.313,-0.001 0.318,-0.001 0.772,-0.006 1.567,-0.037 2.43,-0.094 15.734,-1.041 30.277,-10.761 42.674,-19.789 l 0.502,-0.365 c 15.386,-11.207 31.297,-22.794 50.131,-22.876 h 0.004 c 0.659,0 1.197,0.537 1.2,1.196 0.002,0.661 -0.534,1.202 -1.195,1.205 -18.056,0.077 -33.648,11.432 -48.728,22.415 l -0.501,0.365 c -12.185,8.874 -26.485,18.452 -42.166,20.093 15.829,18.825 41.428,28.169 59.347,33.564 23.475,7.066 42.657,10.358 60.369,10.358 2.621,0 5.25,-0.075 7.814,-0.224 25.043,-1.447 47.258,-10.374 62.554,-25.137 21.028,-20.293 28.705,-49.971 36.13,-78.672 5.95,-23.001 12.916,-46.983 26.679,-65.341 -8.084,-2.781 -15.899,-6.354 -23.458,-9.814 -0.291,-0.134 -0.514,-0.372 -0.625,-0.673 -0.112,-0.3 -0.101,-0.627 0.033,-0.918 0.194,-0.426 0.622,-0.701 1.09,-0.701 0.173,0 0.342,0.036 0.5,0.11 7.772,3.556 15.81,7.234 24.136,10.028 0.675,0.228 1.353,0.451 2.033,0.665 4.278,1.351 8.249,2.334 12.14,3.004 3.873,0.668 7.718,1.007 11.43,1.007 10.456,0 19.851,-2.671 27.168,-7.725 11.632,-8.035 18.24,-22.236 23.554,-33.654 L -17.94,43.399 c 3.441,-7.397 7.723,-16.602 15.497,-21.947 0.875,-0.6 1.807,-1.17 2.735,-1.735 C 3.31,17.876 6.159,16.137 7.2,13.221 9.328,7.266 2.227,1.596 0,0 m -167.515,-25.906 h -458.873 v 9.391 h 301.923 c 0.397,0 0.768,0.197 0.991,0.526 0.224,0.327 0.271,0.744 0.125,1.114 l -2.085,5.297 h 20.303 13.149 75.359 c 0.104,-0.078 0.372,-0.278 0.447,-0.33 0.203,-0.144 0.441,-0.219 0.689,-0.219 0.391,0 0.758,0.191 0.981,0.51 0.009,0.012 0.012,0.027 0.018,0.039 h 46.973 v -9.876 -2.014 z M -333.407,88.548 c -4.901,-1.657 -7.476,-6.697 -9.506,-11.292 l -8.829,-19.991 -31.995,81.271 c 12.159,-14.723 26.071,-28.711 41.39,-41.582 3.709,-3.116 7.065,-5.757 10.253,-8.081 -0.48,-0.09 -0.919,-0.192 -1.313,-0.325 m 21.515,-35.949 c 0.632,-0.087 3.054,-0.418 3.812,-0.521 l -1.391,-8.007 c -1.868,-0.123 -3.755,-0.187 -5.613,-0.187 -0.353,0 -0.706,0.004 -1.058,0.009 1.723,2.761 3.154,5.685 4.25,8.706 m -22.667,-8.13 c -1.863,0.605 -3.595,1.493 -5.156,2.644 2.851,5.138 6.122,10.141 9.742,14.956 z m 29.649,-51.647 c -8.545,1.832 -16.883,4.665 -24.783,8.422 l -15.118,38.413 c 1.651,1.558 2.864,3.478 3.92,5.348 1.746,-1.245 3.672,-2.207 5.733,-2.861 -0.509,-2.044 -0.921,-4.368 0.195,-6.429 1.026,-1.895 3.142,-3.026 5.661,-3.026 0.719,0 1.415,0.096 2.07,0.286 2.702,0.781 4.725,2.738 6.348,4.548 1.068,1.193 2.108,2.506 3.175,4.007 0.878,-0.027 1.753,-0.05 2.63,-0.05 1.615,0 3.318,0.057 5.187,0.169 l -1.082,-6.227 c -0.243,-1.406 -0.546,-3.157 0.158,-4.809 0.521,-1.226 1.556,-2.188 2.916,-2.71 0.748,-0.287 1.548,-0.432 2.38,-0.432 0.99,0 1.967,0.213 2.827,0.614 2.828,1.321 4.464,4.15 5.448,6.163 1.707,3.494 2.833,7.254 3.354,11.18 0.911,-0.055 5.32,-0.319 7.001,-0.419 -0.619,-0.377 -1.239,-0.753 -1.864,-1.117 -0.689,-0.4 -1.378,-0.798 -2.075,-1.184 -0.055,-0.03 -0.092,-0.084 -0.102,-0.145 -0.121,-0.816 -0.231,-1.634 -0.336,-2.454 -0.655,-5.155 -0.991,-10.293 -0.998,-15.271 -0.004,-2.77 0.308,-5.839 2.645,-7.598 0.935,-0.704 2.083,-1.076 3.319,-1.076 1.566,0 3.182,0.58 4.437,1.591 1.682,1.356 2.911,3.441 3.756,6.374 0.72,2.502 1.072,5.134 1.056,7.826 2.692,1.071 5.376,2.197 7.981,3.349 5.822,-5.615 13.751,-8.835 21.78,-8.835 0.508,0 1.017,0.013 1.525,0.039 0.61,0.032 1.212,0.099 1.815,0.168 4.792,-13.382 13.137,-25.07 24.151,-33.854 z m -21.469,0 -2.043,5.193 c 4.522,-2.028 9.197,-3.763 13.961,-5.193 z m 22.522,87.833 c 1.698,-0.372 3.399,-0.724 5.101,-1.072 14.006,-2.848 28.363,-4.828 42.675,-5.887 0,0 2.005,-0.148 2.085,-0.153 v 0 c 0,0 0.001,0 0.001,0 0.002,0 0.013,-0.001 0.013,-0.001 0,0 0,0 0,0 5.764,-0.391 11.702,-0.636 17.652,-0.729 8.462,-8.099 15.656,-17.555 21.384,-28.105 -10.062,-8.384 -18.198,-13.888 -27.565,-15.419 -0.663,-0.108 -1.332,-0.196 -2.008,-0.262 0,0 -0.001,-0.001 -0.001,-0.001 -0.058,-0.005 -0.342,-0.033 -0.342,-0.033 -0.341,-0.034 -0.682,-0.069 -1.029,-0.087 -0.484,-0.026 -0.969,-0.04 -1.454,-0.04 -7.113,0 -14.244,2.811 -19.565,7.71 -0.581,0.535 -1.08,1.028 -1.525,1.505 -0.039,0.042 -0.091,0.065 -0.146,0.065 -0.027,0 -0.056,-0.006 -0.082,-0.018 -0.431,-0.194 -0.862,-0.383 -1.295,-0.571 l -0.63,-0.275 c -2.266,-0.995 -4.568,-1.962 -6.844,-2.872 l -0.692,-0.28 c -0.415,-0.169 -0.831,-0.338 -1.248,-0.5 -0.081,-0.031 -0.133,-0.112 -0.127,-0.199 0.041,-0.661 0.055,-1.357 0.041,-2.125 -0.043,-2.267 -0.364,-4.458 -0.957,-6.512 -0.703,-2.442 -1.67,-4.134 -2.955,-5.171 -0.822,-0.661 -1.915,-1.057 -2.925,-1.057 -0.728,0 -1.361,0.2 -1.882,0.592 -1.494,1.123 -1.691,3.5 -1.687,5.677 0.007,5.332 0.4,10.823 1.165,16.323 2.007,1.135 4.021,2.359 5.987,3.641 0.922,0.601 1.834,1.216 2.738,1.844 3.123,2.169 6.111,4.468 8.878,6.837 0.503,0.431 0.562,1.19 0.132,1.692 -0.228,0.266 -0.56,0.419 -0.912,0.419 -0.286,0 -0.563,-0.102 -0.78,-0.287 -3.356,-2.871 -6.977,-5.596 -10.762,-8.099 -0.863,0.052 -10.437,0.624 -10.44,0.624 -10e-4,0 -10e-4,0 -10e-4,0 -0.069,0.004 -1.991,0.119 -1.995,0.119 -0.104,0 -0.191,-0.08 -0.199,-0.185 -0.049,-0.661 -0.119,-1.322 -0.205,-1.979 -0.484,-3.679 -1.542,-7.205 -3.143,-10.481 -0.825,-1.687 -2.168,-4.044 -4.309,-5.043 -0.542,-0.253 -1.168,-0.388 -1.811,-0.388 -0.531,0 -1.057,0.095 -1.521,0.273 -0.527,0.202 -1.228,0.61 -1.566,1.407 -0.396,0.929 -0.242,2.07 10e-4,3.466 l 1.21,6.962 0.351,2.027 1.378,7.933 0.343,1.973 0.801,4.608 c 0.123,0.708 0.251,1.323 0.559,1.653 0.415,0.442 1.305,0.529 2.181,0.581 l 23.837,1.402 c 0.32,0.019 0.613,0.16 0.826,0.401 0.213,0.239 0.32,0.546 0.301,0.867 -0.036,0.632 -0.565,1.127 -1.265,1.127 -0.001,0 -23.84,-1.403 -23.84,-1.403 -1.004,-0.057 -2.683,-0.155 -3.791,-1.334 -0.826,-0.882 -1.026,-2.039 -1.174,-2.883 l -0.779,-4.488 c -0.641,0.088 -2.729,0.373 -3.456,0.472 0.491,1.609 0.866,3.065 1.138,4.433 0.129,0.649 -0.295,1.281 -0.943,1.41 -0.079,0.015 -0.16,0.024 -0.24,0.024 -0.568,0 -1.06,-0.407 -1.171,-0.968 -0.294,-1.487 -0.699,-3.034 -1.238,-4.729 -0.205,-0.646 -0.426,-1.285 -0.661,-1.92 -1.223,-3.31 -2.817,-6.435 -4.739,-9.289 -0.438,-0.649 -0.905,-1.282 -1.378,-1.909 -10e-4,-0.001 -10e-4,-0.002 -10e-4,-0.002 -0.844,-1.118 -1.579,-2.021 -2.315,-2.841 -1.395,-1.558 -3.107,-3.232 -5.226,-3.844 -0.439,-0.128 -0.929,-0.196 -1.414,-0.196 -1.248,0 -2.833,0.466 -3.54,1.774 -0.738,1.363 -0.373,3.154 0.063,4.872 l 0.502,1.935 6.022,23.111 0.687,2.637 c 0.099,0.379 0.201,0.738 0.31,1.082 0.34,1.063 0.707,1.681 1.225,2.067 0.478,0.356 1.137,0.53 2.014,0.53 0.634,0 1.316,-0.089 1.96,-0.185 5.529,-0.825 11.091,-1.862 16.529,-3.084 0.088,-0.019 0.178,-0.03 0.268,-0.03 0.563,0 1.043,0.386 1.167,0.938 0.144,0.646 -0.263,1.289 -0.909,1.434 -5.503,1.235 -11.122,2.284 -16.702,3.117 -0.689,0.103 -1.504,0.207 -2.308,0.207 -1.417,0 -2.546,-0.328 -3.453,-1.004 -1.443,-1.075 -1.97,-2.726 -2.423,-4.466 l -0.562,-2.156 c -4.98,-6.032 -9.436,-12.56 -13.246,-19.401 l -0.998,-1.797 c -0.829,-1.49 -1.82,-3.171 -3.067,-4.564 l -4.731,12.022 9.787,22.161 c 1.907,4.318 4.101,8.645 8.08,9.989 0.849,0.288 1.773,0.426 2.824,0.426 0.291,0 0.584,-0.011 0.878,-0.03 1.721,-0.118 3.501,-0.562 5.167,-1.023 0.001,0 0.002,0 0.003,0 l 0.781,-0.216 c 6.283,-1.764 12.719,-3.37 19.128,-4.776 m -77.53,151.984 c 3.796,0.809 7.492,1.221 10.983,1.221 l 0.406,-0.002 c 9.778,-0.077 18.809,-3.23 25.427,-8.876 7.854,-6.701 12.179,-16.651 16.368,-26.29 0.588,-1.354 1.175,-2.704 1.77,-4.041 6.954,-15.64 14.663,-28.119 23.573,-38.15 10.769,-12.124 23.581,-20.808 37.048,-25.111 4.31,-1.377 8.781,-2.339 13.113,-3.27 3.652,-0.786 7.428,-1.599 11.057,-2.654 9.45,-2.748 16.063,-6.774 20.218,-12.308 6.264,-8.344 6.446,-19.032 5.676,-29.364 -2.525,0.487 -4.591,0.931 -6.466,1.391 l -1.06,0.261 c -4.429,1.095 -9.448,2.335 -14.223,2.335 -3.557,0 -6.599,-0.669 -9.299,-2.045 -3.751,-1.91 -6.822,-5.344 -8.668,-9.672 -15.951,1.159 -31.917,3.464 -47.46,6.85 -40.613,28.477 -72.983,67.384 -93.617,112.52 1.94,13.503 7.18,26.365 15.154,37.205 m -317.272,-76.436 h 301.51 2.455 1.434 l 1.801,-4.557 c 0.002,-0.006 -0.002,-0.013 0,-0.019 l 2.694,-6.825 c 0.002,-0.007 -0.002,-0.015 10e-4,-0.023 l 35.689,-90.679 1.031,-2.618 4.419,-11.23 0.749,-1.9 14.176,-36.02 1.091,-2.773 2.759,-7.01 0.788,-2 1.835,-4.663 h -300.361 -2 -3.038 z M 9.46,14.028 c -1.326,3.717 -4.68,5.762 -7.937,7.747 -0.877,0.536 -1.783,1.089 -2.607,1.656 -7.231,4.97 -11.361,13.845 -14.681,20.98 l -33.056,71.049 c -5.433,11.676 -12.194,26.207 -24.365,34.612 -7.719,5.333 -17.586,8.152 -28.534,8.152 -3.847,0 -7.83,-0.351 -11.836,-1.042 -4.165,-0.719 -8.432,-1.79 -13.034,-3.269 -13.821,18.095 -20.801,42.101 -26.763,65.147 -7.507,29.022 -15.271,59.032 -36.786,79.796 -15.708,15.16 -38.466,24.325 -64.082,25.806 -2.609,0.15 -5.283,0.227 -7.948,0.227 -17.956,0 -37.359,-3.324 -61.064,-10.46 -18.725,-5.637 -45.467,-15.465 -61.587,-35.645 -0.58,0.023 -1.16,0.036 -1.742,0.036 -1.643,0 -3.281,-0.094 -4.87,-0.28 -15.912,-1.854 -30.906,-14.182 -37.312,-30.674 -1.8,-4.635 -3.004,-9.65 -3.576,-14.981 -0.006,-0.015 -0.019,-0.026 -0.021,-0.043 -0.209,-1.92 -0.334,-3.844 -0.364,-5.782 0.743,-2.367 1.461,-4.547 2.197,-6.666 7.402,-21.345 18.03,-42.131 31.586,-61.79 h -301.499 c -0.397,0 -0.768,-0.197 -0.992,-0.525 -0.224,-0.329 -0.27,-0.746 -0.125,-1.115 l 67.977,-172.718 c 0.183,-0.462 0.621,-0.761 1.117,-0.761 h 3.655 v -10.591 c 0,-0.663 0.539,-1.201 1.201,-1.201 h 461.274 c 0.662,0 1.2,0.538 1.2,1.201 v 5.233 c 16.047,-1.52 32.238,-2.293 48.127,-2.293 19.471,0 39.139,1.131 58.456,3.362 20.811,2.403 42.474,6.349 59.927,18.854 2.574,1.843 10.758,8.438 8.064,15.978" /></g><g
           transform="translate(165.8668,176.8464)"
           id="g768"><path
             id="path770"
             style="fill:#000000;fill-opacity:1;fill-rule:nonzero;stroke:none"
             d="m 0,0 c 3.424,2.879 7.856,4.4 12.817,4.4 9.387,0 19.383,-5.226 26.742,-13.98 5.677,-6.753 9.054,-14.732 9.509,-22.467 0.447,-7.603 -1.993,-14.05 -6.873,-18.15 -3.431,-2.885 -7.855,-4.41 -12.794,-4.41 -2.024,0 -4.132,0.255 -6.268,0.759 -7.542,1.779 -14.821,6.478 -20.497,13.231 -5.677,6.753 -9.054,14.732 -9.509,22.467 C -7.32,-10.547 -4.88,-4.101 0,0 m 0.798,-42.162 c 6.007,-7.146 13.743,-12.125 21.784,-14.022 2.324,-0.547 4.621,-0.825 6.829,-0.825 5.504,0 10.458,1.72 14.329,4.974 5.474,4.601 8.217,11.75 7.724,20.129 -0.485,8.247 -4.06,16.724 -10.067,23.871 C 33.598,1.241 22.903,6.78 12.79,6.78 7.259,6.78 2.302,5.071 -1.545,1.838 c -5.474,-4.602 -8.217,-11.75 -7.724,-20.129 0.485,-8.247 4.06,-16.725 10.067,-23.871" /></g></g></g></g></svg>